<?xml version="1.0" encoding="UTF-8"?>
<!--Generator: Apple Native CoreSVG 149-->
<!DOCTYPE svg
PUBLIC "-//W3C//DTD SVG 1.1//EN"
       "http://www.w3.org/Graphics/SVG/1.1/DTD/svg11.dtd">
<svg version="1.1" xmlns="http://www.w3.org/2000/svg" xmlns:xlink="http://www.w3.org/1999/xlink" width="3300" height="2200">
 <!--glyph: "uni1002F0.medium", point size: 100.000000, font version: "Version 16.0d18e1", template writer version: "8"-->
 <g id="Notes">
  <rect height="2200" id="artboard" style="fill:white;opacity:1" width="3300" x="0" y="0"/>
  <line id="" style="fill:none;stroke:black;opacity:1;stroke-width:0.5;" x1="263" x2="3036" y1="292" y2="292"/>
  <text style="stroke:none;fill:black;font-family:-apple-system,&quot;SF Pro Display&quot;,&quot;SF Pro Text&quot;,Helvetica,sans-serif;font-weight:bold;" transform="matrix(1 0 0 1 263 322)">Weight/Scale Variations</text>
  <text style="stroke:none;fill:black;font-family:-apple-system,&quot;SF Pro Display&quot;,&quot;SF Pro Text&quot;,Helvetica,sans-serif;text-anchor:middle;" transform="matrix(1 0 0 1 559.711 322)">Ultralight</text>
  <text style="stroke:none;fill:black;font-family:-apple-system,&quot;SF Pro Display&quot;,&quot;SF Pro Text&quot;,Helvetica,sans-serif;text-anchor:middle;" transform="matrix(1 0 0 1 856.422 322)">Thin</text>
  <text style="stroke:none;fill:black;font-family:-apple-system,&quot;SF Pro Display&quot;,&quot;SF Pro Text&quot;,Helvetica,sans-serif;text-anchor:middle;" transform="matrix(1 0 0 1 1153.13 322)">Light</text>
  <text style="stroke:none;fill:black;font-family:-apple-system,&quot;SF Pro Display&quot;,&quot;SF Pro Text&quot;,Helvetica,sans-serif;text-anchor:middle;" transform="matrix(1 0 0 1 1449.84 322)">Regular</text>
  <text style="stroke:none;fill:black;font-family:-apple-system,&quot;SF Pro Display&quot;,&quot;SF Pro Text&quot;,Helvetica,sans-serif;text-anchor:middle;" transform="matrix(1 0 0 1 1746.56 322)">Medium</text>
  <text style="stroke:none;fill:black;font-family:-apple-system,&quot;SF Pro Display&quot;,&quot;SF Pro Text&quot;,Helvetica,sans-serif;text-anchor:middle;" transform="matrix(1 0 0 1 2043.27 322)">Semibold</text>
  <text style="stroke:none;fill:black;font-family:-apple-system,&quot;SF Pro Display&quot;,&quot;SF Pro Text&quot;,Helvetica,sans-serif;text-anchor:middle;" transform="matrix(1 0 0 1 2339.98 322)">Bold</text>
  <text style="stroke:none;fill:black;font-family:-apple-system,&quot;SF Pro Display&quot;,&quot;SF Pro Text&quot;,Helvetica,sans-serif;text-anchor:middle;" transform="matrix(1 0 0 1 2636.69 322)">Heavy</text>
  <text style="stroke:none;fill:black;font-family:-apple-system,&quot;SF Pro Display&quot;,&quot;SF Pro Text&quot;,Helvetica,sans-serif;text-anchor:middle;" transform="matrix(1 0 0 1 2933.4 322)">Black</text>
  <line id="" style="fill:none;stroke:black;opacity:1;stroke-width:0.5;" x1="263" x2="3036" y1="1903" y2="1903"/>
  <g id="" transform="matrix(1 0 0 1 263 1933)">
   <path d="M9.24805 0.830078C13.5547 0.830078 17.1387-2.74414 17.1387-7.05078C17.1387-11.3574 13.5449-14.9316 9.23828-14.9316C4.94141-14.9316 1.36719-11.3574 1.36719-7.05078C1.36719-2.74414 4.95117 0.830078 9.24805 0.830078ZM9.24805-0.654297C5.70312-0.654297 2.87109-3.49609 2.87109-7.05078C2.87109-10.6055 5.69336-13.4473 9.23828-13.4473C12.793-13.4473 15.6348-10.6055 15.6445-7.05078C15.6543-3.49609 12.8027-0.654297 9.24805-0.654297ZM6.39648-6.31836L8.50586-6.31836L8.50586-4.19922C8.50586-3.75977 8.79883-3.45703 9.22852-3.45703C9.67773-3.45703 9.9707-3.75977 9.9707-4.19922L9.9707-6.31836L12.0996-6.31836C12.5391-6.31836 12.8418-6.61133 12.8418-7.04102C12.8418-7.48047 12.5391-7.7832 12.0996-7.7832L9.9707-7.7832L9.9707-9.89258C9.9707-10.3418 9.67773-10.6445 9.22852-10.6445C8.79883-10.6445 8.50586-10.3418 8.50586-9.89258L8.50586-7.7832L6.39648-7.7832C5.94727-7.7832 5.64453-7.48047 5.64453-7.04102C5.64453-6.61133 5.94727-6.31836 6.39648-6.31836Z"/>
  </g>
  <g id="" transform="matrix(1 0 0 1 281.506 1933)">
   <path d="M11.709 2.91016C17.1582 2.91016 21.6699-1.61133 21.6699-7.05078C21.6699-12.5 17.1484-17.0117 11.6992-17.0117C6.25977-17.0117 1.74805-12.5 1.74805-7.05078C1.74805-1.61133 6.26953 2.91016 11.709 2.91016ZM11.709 1.25C7.09961 1.25 3.41797-2.44141 3.41797-7.05078C3.41797-11.6602 7.08984-15.3516 11.6992-15.3516C16.3086-15.3516 20-11.6602 20.0098-7.05078C20.0195-2.44141 16.3184 1.25 11.709 1.25ZM7.98828-6.23047L10.8789-6.23047L10.8789-3.32031C10.8789-2.83203 11.2109-2.5 11.6895-2.5C12.1777-2.5 12.5195-2.83203 12.5195-3.32031L12.5195-6.23047L15.4297-6.23047C15.918-6.23047 16.25-6.5625 16.25-7.04102C16.25-7.5293 15.918-7.87109 15.4297-7.87109L12.5195-7.87109L12.5195-10.7617C12.5195-11.2695 12.1777-11.6016 11.6895-11.6016C11.2109-11.6016 10.8789-11.2598 10.8789-10.7617L10.8789-7.87109L7.98828-7.87109C7.48047-7.87109 7.14844-7.5293 7.14844-7.04102C7.14844-6.5625 7.49023-6.23047 7.98828-6.23047Z"/>
  </g>
  <g id="" transform="matrix(1 0 0 1 304.924 1933)">
   <path d="M14.9707 5.66406C21.9336 5.66406 27.6953-0.0976562 27.6953-7.05078C27.6953-14.0137 21.9238-19.7754 14.9609-19.7754C8.00781-19.7754 2.25586-14.0137 2.25586-7.05078C2.25586-0.0976562 8.01758 5.66406 14.9707 5.66406ZM14.9707 3.84766C8.93555 3.84766 4.08203-1.01562 4.08203-7.05078C4.08203-13.0957 8.92578-17.9492 14.9609-17.9492C21.0059-17.9492 25.8594-13.0957 25.8691-7.05078C25.8789-1.01562 21.0156 3.84766 14.9707 3.84766ZM10.0586-6.14258L14.0625-6.14258L14.0625-2.12891C14.0625-1.5918 14.4336-1.2207 14.9512-1.2207C15.4883-1.2207 15.8594-1.5918 15.8594-2.12891L15.8594-6.14258L19.8828-6.14258C20.4102-6.14258 20.791-6.51367 20.791-7.03125C20.791-7.56836 20.4199-7.94922 19.8828-7.94922L15.8594-7.94922L15.8594-11.9531C15.8594-12.5098 15.4883-12.8809 14.9512-12.8809C14.4336-12.8809 14.0625-12.5 14.0625-11.9531L14.0625-7.94922L10.0586-7.94922C9.50195-7.94922 9.13086-7.56836 9.13086-7.03125C9.13086-6.51367 9.51172-6.14258 10.0586-6.14258Z"/>
  </g>
  <text style="stroke:none;fill:black;font-family:-apple-system,&quot;SF Pro Display&quot;,&quot;SF Pro Text&quot;,Helvetica,sans-serif;font-weight:bold;" transform="matrix(1 0 0 1 263 1953)">Design Variations</text>
  <text style="stroke:none;fill:black;font-family:-apple-system,&quot;SF Pro Display&quot;,&quot;SF Pro Text&quot;,Helvetica,sans-serif;" transform="matrix(1 0 0 1 263 1971)">Symbols are supported in up to nine weights and three scales.</text>
  <text style="stroke:none;fill:black;font-family:-apple-system,&quot;SF Pro Display&quot;,&quot;SF Pro Text&quot;,Helvetica,sans-serif;" transform="matrix(1 0 0 1 263 1989)">For optimal layout with text and other symbols, vertically align</text>
  <text style="stroke:none;fill:black;font-family:-apple-system,&quot;SF Pro Display&quot;,&quot;SF Pro Text&quot;,Helvetica,sans-serif;" transform="matrix(1 0 0 1 263 2007)">symbols with the adjacent text.</text>
  <line id="" style="fill:none;stroke:#00AEEF;stroke-width:0.5;opacity:1.0;" x1="776" x2="776" y1="1919" y2="1933"/>
  <g id="" transform="matrix(1 0 0 1 776 1933)">
   <path d="M3.31055 0.126953C3.82812 0.126953 4.08203-0.0683594 4.26758-0.605469L5.52734-4.0625L11.2891-4.0625L12.5488-0.605469C12.7344-0.0683594 12.9883 0.126953 13.4961 0.126953C14.0137 0.126953 14.3457-0.185547 14.3457-0.673828C14.3457-0.839844 14.3164-0.986328 14.2383-1.20117L9.6582-13.3887C9.43359-13.9941 9.0332-14.2871 8.4082-14.2871C7.80273-14.2871 7.39258-13.9941 7.17773-13.3984L2.59766-1.19141C2.51953-0.976562 2.49023-0.830078 2.49023-0.664062C2.49023-0.175781 2.80273 0.126953 3.31055 0.126953ZM6.00586-5.53711L8.37891-12.1094L8.42773-12.1094L10.8008-5.53711Z"/>
  </g>
  <line id="" style="fill:none;stroke:#00AEEF;stroke-width:0.5;opacity:1.0;" x1="792.836" x2="792.836" y1="1919" y2="1933"/>
  <text style="stroke:none;fill:black;font-family:-apple-system,&quot;SF Pro Display&quot;,&quot;SF Pro Text&quot;,Helvetica,sans-serif;font-weight:bold;" transform="matrix(1 0 0 1 776 1953)">Margins</text>
  <text style="stroke:none;fill:black;font-family:-apple-system,&quot;SF Pro Display&quot;,&quot;SF Pro Text&quot;,Helvetica,sans-serif;" transform="matrix(1 0 0 1 776 1971)">Leading and trailing margins on the left and right side of each symbol</text>
  <text style="stroke:none;fill:black;font-family:-apple-system,&quot;SF Pro Display&quot;,&quot;SF Pro Text&quot;,Helvetica,sans-serif;" transform="matrix(1 0 0 1 776 1989)">can be adjusted by modifying the x-location of the margin guidelines.</text>
  <text style="stroke:none;fill:black;font-family:-apple-system,&quot;SF Pro Display&quot;,&quot;SF Pro Text&quot;,Helvetica,sans-serif;" transform="matrix(1 0 0 1 776 2007)">Modifications are automatically applied proportionally to all</text>
  <text style="stroke:none;fill:black;font-family:-apple-system,&quot;SF Pro Display&quot;,&quot;SF Pro Text&quot;,Helvetica,sans-serif;" transform="matrix(1 0 0 1 776 2025)">scales and weights.</text>
  <g id="" transform="matrix(1 0 0 1 1289 1933)">
   <path d="M2.8418 1.86523L4.54102 3.57422C5.40039 4.44336 6.38672 4.38477 7.31445 3.35938L17.4902-7.85156C17.7539-7.76367 18.0273-7.7832 18.3398-7.8418L19.4043-8.03711L20.0684-7.36328L20.0293-6.80664C19.9902-6.30859 20.1172-5.92773 20.6055-5.44922L21.3672-4.70703C21.8457-4.22852 22.4609-4.19922 22.9297-4.66797L25.8398-7.58789C26.3086-8.05664 26.2891-8.65234 25.8105-9.13086L25.0391-9.89258C24.5605-10.3711 24.1895-10.5273 23.7109-10.4883L23.1348-10.4395L22.4902-11.0742L22.7344-12.1973C22.8613-12.7637 22.7051-13.2031 22.1191-13.7891L19.9219-15.9766C16.582-19.2969 12.1484-19.2188 9.25781-16.3281C8.83789-15.918 8.80859-15.3418 9.04297-14.9512C9.27734-14.5898 9.73633-14.3555 10.3809-14.5215C11.8457-14.8633 13.3691-14.9219 14.7949-13.9844L14.209-12.5293C14.0137-12.0508 13.9844-11.6504 14.1113-11.2891L3.04688-0.898438C2.06055 0.0195312 1.98242 0.996094 2.8418 1.86523ZM10.752-15.957C13.1836-17.7344 16.4746-17.4316 18.7012-15.2051L21.1328-12.793C21.3672-12.5586 21.4062-12.373 21.3379-12.0312L21.0156-10.5469L22.5195-9.0625L23.5059-9.12109C23.7598-9.13086 23.8379-9.11133 24.0332-8.91602L24.6094-8.33984L22.168-5.89844L21.5918-6.47461C21.3965-6.66992 21.3672-6.74805 21.377-7.01172L21.4453-7.98828L19.9512-9.47266L18.4277-9.21875C18.1055-9.15039 17.959-9.17969 17.7148-9.41406L15.7129-11.416C15.459-11.6504 15.4297-11.8164 15.5859-12.1875L16.4648-14.2773C14.9023-15.7324 12.8711-16.3574 10.8398-15.7617C10.6836-15.7227 10.625-15.8496 10.752-15.957ZM5.27344 2.30469L4.10156 1.14258C3.63281 0.683594 3.74023 0.341797 4.14062-0.0195312L14.9512-10.1953L16.416-8.71094L6.42578 2.27539C6.07422 2.67578 5.74219 2.77344 5.27344 2.30469Z"/>
  </g>
  <text style="stroke:none;fill:black;font-family:-apple-system,&quot;SF Pro Display&quot;,&quot;SF Pro Text&quot;,Helvetica,sans-serif;font-weight:bold;" transform="matrix(1 0 0 1 1289 1953)">Exporting</text>
  <text style="stroke:none;fill:black;font-family:-apple-system,&quot;SF Pro Display&quot;,&quot;SF Pro Text&quot;,Helvetica,sans-serif;" transform="matrix(1 0 0 1 1289 1971)">Symbols should be outlined when exporting to ensure the</text>
  <text style="stroke:none;fill:black;font-family:-apple-system,&quot;SF Pro Display&quot;,&quot;SF Pro Text&quot;,Helvetica,sans-serif;" transform="matrix(1 0 0 1 1289 1989)">design is preserved when submitting to Xcode.</text>
  <text id="template-version" style="stroke:none;fill:black;font-family:-apple-system,&quot;SF Pro Display&quot;,&quot;SF Pro Text&quot;,Helvetica,sans-serif;text-anchor:end;" transform="matrix(1 0 0 1 3036 1933)">Template v.2.0</text>
  <text style="stroke:none;fill:black;font-family:-apple-system,&quot;SF Pro Display&quot;,&quot;SF Pro Text&quot;,Helvetica,sans-serif;text-anchor:end;" transform="matrix(1 0 0 1 3036 1951)">Requires Xcode 12 or greater</text>
  <text style="stroke:none;fill:black;font-family:-apple-system,&quot;SF Pro Display&quot;,&quot;SF Pro Text&quot;,Helvetica,sans-serif;text-anchor:end;" transform="matrix(1 0 0 1 3036 1969)">Generated from eye.slash.fill</text>
  <text style="stroke:none;fill:black;font-family:-apple-system,&quot;SF Pro Display&quot;,&quot;SF Pro Text&quot;,Helvetica,sans-serif;text-anchor:end;" transform="matrix(1 0 0 1 3036 1987)">Typeset at 100 points</text>
  <text style="stroke:none;fill:black;font-family:-apple-system,&quot;SF Pro Display&quot;,&quot;SF Pro Text&quot;,Helvetica,sans-serif;" transform="matrix(1 0 0 1 263 726)">Small</text>
  <text style="stroke:none;fill:black;font-family:-apple-system,&quot;SF Pro Display&quot;,&quot;SF Pro Text&quot;,Helvetica,sans-serif;" transform="matrix(1 0 0 1 263 1156)">Medium</text>
  <text style="stroke:none;fill:black;font-family:-apple-system,&quot;SF Pro Display&quot;,&quot;SF Pro Text&quot;,Helvetica,sans-serif;" transform="matrix(1 0 0 1 263 1586)">Large</text>
 </g>
 <g id="Guides">
  <g id="H-reference" style="fill:#27AAE1;stroke:none;" transform="matrix(1 0 0 1 339 696)">
   <path d="M0.976562 0L3.66211 0L12.9883-24.4629L45.752-24.4629L55.127 0L57.7637 0L30.6152-70.459L28.125-70.459ZM29.3457-67.1387L29.4434-67.1387L44.873-26.709L13.8672-26.709Z"/>
  </g>
  <line id="Baseline-S" style="fill:none;stroke:#27AAE1;opacity:1;stroke-width:0.5;" x1="263" x2="3036" y1="696" y2="696"/>
  <line id="Capline-S" style="fill:none;stroke:#27AAE1;opacity:1;stroke-width:0.5;" x1="263" x2="3036" y1="625.541" y2="625.541"/>
  <g id="H-reference" style="fill:#27AAE1;stroke:none;" transform="matrix(1 0 0 1 339 1126)">
   <path d="M0.976562 0L3.66211 0L12.9883-24.4629L45.752-24.4629L55.127 0L57.7637 0L30.6152-70.459L28.125-70.459ZM29.3457-67.1387L29.4434-67.1387L44.873-26.709L13.8672-26.709Z"/>
  </g>
  <line id="Baseline-M" style="fill:none;stroke:#27AAE1;opacity:1;stroke-width:0.5;" x1="263" x2="3036" y1="1126" y2="1126"/>
  <line id="Capline-M" style="fill:none;stroke:#27AAE1;opacity:1;stroke-width:0.5;" x1="263" x2="3036" y1="1055.54" y2="1055.54"/>
  <g id="H-reference" style="fill:#27AAE1;stroke:none;" transform="matrix(1 0 0 1 339 1556)">
   <path d="M0.976562 0L3.66211 0L12.9883-24.4629L45.752-24.4629L55.127 0L57.7637 0L30.6152-70.459L28.125-70.459ZM29.3457-67.1387L29.4434-67.1387L44.873-26.709L13.8672-26.709Z"/>
  </g>
  <line id="Baseline-L" style="fill:none;stroke:#27AAE1;opacity:1;stroke-width:0.5;" x1="263" x2="3036" y1="1556" y2="1556"/>
  <line id="Capline-L" style="fill:none;stroke:#27AAE1;opacity:1;stroke-width:0.5;" x1="263" x2="3036" y1="1485.54" y2="1485.54"/>
  <line id="left-margin" style="fill:none;stroke:#00AEEF;stroke-width:0.5;opacity:1.0;" x1="1373.16" x2="1373.16" y1="1030.79" y2="1150.12"/>
  <line id="right-margin" style="fill:none;stroke:#00AEEF;stroke-width:0.5;opacity:1.0;" x1="1526.53" x2="1526.53" y1="1030.79" y2="1150.12"/>
 </g>
 <g id="Symbols">
  <g id="Black-L" transform="matrix(1 0 0 1 2832.15 1556)">
   <path d="M152.783 23.9258C155.029 26.2207 158.691 26.2695 160.889 23.9258C163.135 21.6309 163.135 18.0664 160.889 15.8203L49.8047-95.166C47.5586-97.4121 43.8477-97.4121 41.6016-95.166C39.4531-93.0176 39.4531-89.209 41.6016-87.0605ZM159.424 1.46484C177.539-11.4258 188.086-27.9297 188.086-35.1074C188.086-47.9004 154.639-90.5273 101.221-90.5273C90.6738-90.5273 80.8594-88.8184 71.9238-85.9863L91.8945-66.0156C94.9219-66.8945 98.0469-67.3828 101.318-67.3828C119.238-67.3828 133.838-53.0273 133.838-35.0586C133.838-31.7871 133.35-28.6133 132.373-25.5859ZM101.221 20.3125C112.207 20.3125 122.363 18.5059 131.543 15.5273L111.475-4.54102C108.301-3.41797 104.834-2.7832 101.318-2.7832C83.3496-2.7832 68.7012-17.627 68.7012-35.0586C68.7012-38.7207 69.3359-42.2363 70.5078-45.5078L43.9941-71.9727C25.293-58.9844 14.4043-42.334 14.4043-35.1074C14.4043-22.3145 48.6816 20.3125 101.221 20.3125ZM122.314-36.4746C122.314-47.6562 113.232-56.7383 102.002-56.7383C101.709-56.7383 101.465-56.7383 101.221-56.7383L122.266-35.6445C122.314-35.9375 122.314-36.1816 122.314-36.4746ZM79.8828-35.0586C79.8828-23.877 89.0625-14.7461 100.244-14.7461C100.537-14.7461 100.781-14.7949 101.123-14.7949L79.9316-35.9863C79.9316-35.6445 79.8828-35.3516 79.8828-35.0586Z"/>
  </g>
  <g id="Heavy-L" transform="matrix(1 0 0 1 2536.2 1556)">
   <path d="M151.611 22.9004C153.711 25 157.08 25.0488 159.18 22.9004C161.328 20.7031 161.279 17.3828 159.18 15.2832L49.2676-94.5801C47.168-96.6797 43.7012-96.6797 41.6016-94.5801C39.5508-92.5293 39.5508-89.0137 41.6016-86.9629ZM157.52 1.51367C175.83-11.2793 186.816-27.8809 186.816-35.1562C186.816-47.9004 152.979-90.0391 100.439-90.0391C89.7949-90.0391 79.834-88.2812 70.752-85.3027L89.8926-66.2109C93.2129-67.3828 96.8262-68.0664 100.537-68.0664C118.799-68.0664 133.691-53.418 133.691-35.1074C133.691-31.3477 133.008-27.7344 131.738-24.4141ZM100.439 19.8242C111.67 19.8242 122.07 17.8711 131.348 14.6973L112.109-4.54102C108.594-3.02734 104.639-2.19727 100.537-2.19727C82.2266-2.19727 67.3828-17.2852 67.334-35.1074C67.334-39.3066 68.1641-43.3105 69.6777-46.9727L44.4824-72.2168C25.4395-59.2773 14.1602-42.4316 14.1602-35.1562C14.1602-22.3633 48.7305 19.8242 100.439 19.8242ZM120.898-36.4258C120.898-47.3145 112.061-56.2012 101.074-56.2012C100.684-56.2012 100.293-56.2012 99.9512-56.1523L120.85-35.2539C120.898-35.6445 120.898-35.9863 120.898-36.4258ZM79.834-35.3516C79.834-24.4141 88.8184-15.5273 99.707-15.5273C100.146-15.5273 100.537-15.5762 100.977-15.625L79.9316-36.6699C79.8828-36.2305 79.834-35.791 79.834-35.3516Z"/>
  </g>
  <g id="Bold-L" transform="matrix(1 0 0 1 2240.34 1556)">
   <path d="M150.293 21.6797C152.197 23.6328 155.322 23.6816 157.275 21.6797C159.277 19.6289 159.229 16.6016 157.275 14.6973L48.6328-93.8965C46.7285-95.8008 43.5547-95.8496 41.6016-93.8965C39.6973-91.9922 39.6973-88.7695 41.6016-86.8652ZM155.371 1.5625C173.926-11.0352 185.352-27.832 185.352-35.1562C185.352-47.9004 151.172-89.502 99.6094-89.502C88.7695-89.502 78.6621-87.6465 69.4824-84.5703L87.6465-66.4062C91.3574-67.9199 95.4102-68.7988 99.707-68.7988C118.311-68.7988 133.496-53.9062 133.496-35.1074C133.496-30.8594 132.617-26.8066 131.006-23.0957ZM99.6094 19.2383C111.084 19.2383 121.68 17.1875 131.104 13.7695L112.842-4.44336C108.887-2.58789 104.395-1.51367 99.707-1.51367C80.9082-1.51367 65.8691-16.8945 65.8203-35.1074C65.8203-39.9414 66.8457-44.4824 68.75-48.584L45.0195-72.4121C25.5859-59.668 13.916-42.5293 13.916-35.1562C13.916-22.4609 48.7305 19.2383 99.6094 19.2383ZM119.336-36.3281C119.336-46.9727 110.742-55.6152 100.049-55.6152C99.5117-55.6152 99.0234-55.5664 98.4863-55.5176L119.238-34.8145C119.287-35.3027 119.336-35.791 119.336-36.3281ZM79.7852-35.6934C79.7852-25.0488 88.5254-16.4062 99.1699-16.4062C99.7559-16.4062 100.244-16.4551 100.83-16.5039L79.8828-37.4023C79.834-36.8652 79.7852-36.2793 79.7852-35.6934Z"/>
  </g>
  <g id="Semibold-L" transform="matrix(1 0 0 1 1944.22 1556)">
   <path d="M149.365 20.8496C151.172 22.7051 154.102 22.7539 155.957 20.8496C157.861 18.8965 157.812 16.1133 155.957 14.2578L48.2422-93.4082C46.4355-95.2148 43.4082-95.2637 41.5527-93.4082C39.7949-91.6504 39.7949-88.5742 41.5527-86.8164ZM153.857 1.61133C172.656-10.9375 184.375-27.7832 184.375-35.1562C184.375-47.8516 149.902-89.1113 99.0723-89.1113C88.0859-89.1113 77.8809-87.2559 68.6035-84.0332L86.084-66.5527C90.0879-68.3105 94.4336-69.2871 99.0723-69.2871C117.969-69.2871 133.35-54.1992 133.35-35.1562C133.35-30.5664 132.324-26.123 130.469-22.2168ZM99.0723 18.7988C110.693 18.7988 121.436 16.6992 130.957 13.1348L113.379-4.44336C109.082-2.24609 104.199-1.02539 99.0723-1.02539C80.0293-1.02539 64.8438-16.6016 64.7461-35.1562C64.7461-40.3809 65.9668-45.3125 68.1152-49.6582L45.4102-72.6074C25.6836-59.9121 13.7207-42.627 13.7207-35.1562C13.7207-22.5098 48.7305 18.7988 99.0723 18.7988ZM118.262-36.3281C118.262-46.7773 109.863-55.1758 99.3164-55.1758C98.7305-55.1758 98.0957-55.1758 97.5098-55.0781L118.164-34.4727C118.213-35.0586 118.262-35.6445 118.262-36.3281ZM79.7363-35.8887C79.7363-25.4395 88.3301-16.9922 98.7793-16.9922C99.4141-16.9922 100.049-17.041 100.684-17.0898L79.8828-37.9395C79.834-37.2559 79.7363-36.5723 79.7363-35.8887Z"/>
  </g>
  <g id="Medium-L" transform="matrix(1 0 0 1 1647.95 1556)">
   <path d="M148.682 20.2637C150.391 21.9727 153.174 22.0703 154.98 20.2637C156.787 18.3594 156.689 15.6738 154.98 13.9648L47.9004-93.0664C46.1914-94.7754 43.3105-94.8242 41.5527-93.0664C39.8926-91.3574 39.8926-88.4277 41.5527-86.7676ZM152.783 1.61133C171.631-10.791 183.594-27.7344 183.594-35.1562C183.594-47.8516 148.926-88.8672 98.6328-88.8672C87.5488-88.8672 77.2949-86.9141 67.9199-83.6426L84.9609-66.6504C89.1113-68.5547 93.7012-69.6777 98.6328-69.6777C117.725-69.6777 133.252-54.4434 133.252-35.1562C133.252-30.3223 132.129-25.6348 130.078-21.5332ZM98.6328 18.5059C110.4 18.5059 121.24 16.3086 130.859 12.6465L113.77-4.39453C109.229-2.05078 104.053-0.683594 98.6328-0.683594C79.3945-0.683594 64.0625-16.4062 63.9648-35.1562C63.9648-40.7227 65.2832-45.9473 67.627-50.5371L45.6543-72.7051C25.7812-60.1074 13.623-42.6758 13.623-35.1562C13.623-22.5098 48.7305 18.5059 98.6328 18.5059ZM117.432-36.2793C117.432-46.582 109.18-54.8828 98.7793-54.8828C98.0957-54.8828 97.4121-54.834 96.7773-54.7852L117.334-34.2285C117.383-34.8633 117.432-35.5469 117.432-36.2793ZM79.7363-36.084C79.7363-25.7812 88.1836-17.4805 98.4863-17.4805C99.2188-17.4805 99.9023-17.4805 100.635-17.5781L79.8828-38.3301C79.7852-37.5977 79.7363-36.8164 79.7363-36.084Z"/>
  </g>
  <g id="Regular-L" transform="matrix(1 0 0 1 1351.82 1556)">
   <path d="M147.754 19.4336C149.414 21.0449 151.953 21.1426 153.662 19.4336C155.42 17.627 155.273 15.1855 153.662 13.5254L47.5098-92.5781C45.8984-94.1895 43.2129-94.2383 41.5527-92.5781C39.9902-91.0156 39.9902-88.2812 41.5527-86.6699ZM151.318 1.66016C170.361-10.6934 182.617-27.6855 182.617-35.2051C182.617-47.8516 147.656-88.4766 98.0469-88.4766C86.9141-88.4766 76.4648-86.4746 67.041-83.1055L83.3984-66.7969C87.793-68.9453 92.7734-70.166 98.0469-70.166C117.432-70.166 133.105-54.7363 133.105-35.2051C133.105-29.9805 131.885-25 129.59-20.6543ZM98.0469 18.1152C109.961 18.1152 120.996 15.8203 130.713 12.0605L114.258-4.39453C109.424-1.70898 103.906-0.244141 98.0469-0.244141C78.5156-0.244141 63.0371-16.1621 62.9395-35.2051C62.8906-41.1621 64.4043-46.7773 67.041-51.6113L46.0449-72.8516C25.8789-60.3516 13.4277-42.7246 13.4277-35.2051C13.4277-22.5586 48.7793 18.1152 98.0469 18.1152ZM116.406-36.2305C116.406-46.3379 108.252-54.4922 98.0957-54.4922C97.3145-54.4922 96.5332-54.4434 95.8008-54.3457L116.211-33.9355C116.309-34.668 116.406-35.4492 116.406-36.2305ZM79.6875-36.2793C79.6875-26.1719 88.0371-18.0664 98.0957-18.0664C98.9258-18.0664 99.707-18.1152 100.488-18.1641L79.834-38.8184C79.7852-38.0371 79.6875-37.1582 79.6875-36.2793Z"/>
  </g>
  <g id="Light-L" transform="matrix(1 0 0 1 1056.4 1556)">
   <path d="M147.461 19.4824C148.73 20.752 150.732 20.8008 152.051 19.4824C153.418 18.0664 153.32 16.2109 152.051 14.9414L44.7754-92.334C43.5547-93.5547 41.5039-93.6523 40.1855-92.334C38.9648-91.0645 38.9648-89.0137 40.1855-87.7441ZM147.705 2.34375C167.676-10.2539 180.225-27.6367 180.225-35.2051C180.225-47.7051 145.312-88.1348 96.7285-88.1348C84.9609-88.1348 74.0723-85.8398 64.209-82.0801L80.5664-65.8203C85.3516-68.457 90.8691-69.9707 96.7285-69.9707C115.918-69.9707 131.641-54.5898 131.641-35.2051C131.641-29.3945 130.078-23.8281 127.295-19.0918ZM96.7285 17.7734C109.033 17.7734 120.361 15.2832 130.273 11.1816L113.916-5.12695C108.838-2.14844 102.979-0.439453 96.7285-0.439453C77.3438-0.439453 61.9629-16.2598 61.8164-35.2051C61.7676-41.5527 63.4766-47.5098 66.5039-52.5391L46.2891-73.1934C25.7812-60.5957 13.2324-42.7246 13.2324-35.2051C13.2324-22.7051 48.2422 17.7734 96.7285 17.7734ZM112.744-35.8398C112.744-44.6777 105.664-51.6602 96.7773-51.6602C96.0938-51.6602 95.3613-51.6602 94.7266-51.5625L112.598-33.6914C112.646-34.375 112.744-35.1074 112.744-35.8398ZM80.7617-35.8398C80.7617-27.002 87.9883-20.0195 96.7773-20.0195C97.5098-20.0195 98.2422-20.0195 98.9258-20.1172L80.957-38.1348C80.8594-37.4023 80.7617-36.6211 80.7617-35.8398Z"/>
  </g>
  <g id="Thin-L" transform="matrix(1 0 0 1 761.403 1556)">
   <path d="M147.119 19.5801C147.852 20.3125 149.121 20.3613 149.902 19.5801C150.781 18.7012 150.684 17.5293 149.902 16.748L41.1621-91.9922C40.4785-92.6758 39.209-92.8223 38.3301-91.9922C37.5977-91.2109 37.5977-89.9414 38.3301-89.1602ZM142.969 3.27148C164.111-9.66797 177.1-27.6367 177.1-35.2051C177.1-47.4609 142.188-87.6465 95.0195-87.6465C82.4707-87.6465 70.8984-85.0098 60.498-80.6641L76.8066-64.502C82.0801-67.7734 88.3301-69.6777 95.0195-69.6777C113.916-69.6777 129.688-54.3945 129.688-35.2051C129.688-28.5645 127.686-22.3145 124.268-17.0898ZM95.0195 17.2852C107.764 17.2852 119.482 14.5508 129.688 10.0586L113.428-6.15234C108.057-2.73438 101.709-0.683594 95.0195-0.683594C75.8301-0.683594 60.5957-16.4062 60.3516-35.2051C60.3027-42.041 62.3047-48.4375 65.8203-53.7598L46.6309-73.584C25.5859-60.9375 12.9395-42.7246 12.9395-35.2051C12.9395-22.9004 47.5586 17.2852 95.0195 17.2852ZM107.91-35.3027C107.91-42.5293 102.246-47.998 95.1172-47.998C94.5312-47.998 93.8477-47.998 93.2617-47.9004L107.764-33.3984C107.812-33.9844 107.91-34.668 107.91-35.3027ZM82.2266-35.2539C82.2266-28.0762 87.8906-22.6074 95.0195-22.6074C95.6055-22.6074 96.2891-22.6074 96.875-22.7051L82.373-37.207C82.2754-36.6211 82.2266-35.9375 82.2266-35.2539Z"/>
  </g>
  <g id="Ultralight-L" transform="matrix(1 0 0 1 465.57 1556)">
   <path d="M146.924 19.5801C147.412 20.1172 148.291 20.1172 148.828 19.5801C149.414 18.9941 149.316 18.2129 148.828 17.6758L39.3066-91.7969C38.8672-92.2363 38.0371-92.4316 37.4023-91.7969C36.9141-91.2598 36.9141-90.4297 37.4023-89.8926ZM140.527 3.71094C162.305-9.375 175.488-27.6367 175.488-35.2051C175.488-47.3633 140.625-87.4512 94.1406-87.4512C81.1523-87.4512 69.2383-84.6191 58.5938-79.9805L74.9023-63.8184C80.4199-67.4316 87.0117-69.5312 94.1406-69.5312C112.891-69.5312 128.662-54.2969 128.662-35.2051C128.662-28.1738 126.465-21.5332 122.705-16.0156ZM94.1406 17.041C107.129 17.041 119.043 14.1602 129.395 9.47266L113.184-6.64062C107.617-2.97852 101.074-0.830078 94.1406-0.830078C75.0488-0.830078 59.8633-16.5039 59.6191-35.2051C59.5215-42.334 61.7188-48.9258 65.4297-54.3945L46.7773-73.8281C25.5371-61.084 12.793-42.7246 12.793-35.2051C12.793-22.998 47.168 17.041 94.1406 17.041ZM105.42-35.0586C105.42-41.4062 100.488-46.0938 94.2383-46.0938C93.7012-46.0938 93.0664-46.0938 92.5293-46.0449L105.273-33.252C105.371-33.7891 105.42-34.4238 105.42-35.0586ZM82.959-34.9609C82.959-28.6133 87.8906-23.9258 94.1406-23.9258C94.6777-23.9258 95.3125-23.9258 95.8496-24.0234L83.1055-36.7188C83.0078-36.1816 82.959-35.5957 82.959-34.9609Z"/>
  </g>
  <g id="Black-M" transform="matrix(1 0 0 1 2854.57 1126)">
   <path d="M119.873 12.1094C121.582 13.8672 124.463 13.8672 126.172 12.1094C127.832 10.3516 127.881 7.56836 126.172 5.81055L37.8906-82.373C36.1816-84.1309 33.3008-84.1309 31.543-82.373C29.8828-80.7129 29.8828-77.7832 31.543-76.0742ZM124.219-6.49414C138.428-16.7969 146.289-29.6387 146.289-35.1562C146.289-44.9707 120.801-78.5645 78.7598-78.5645C70.459-78.5645 62.793-77.1973 55.8105-74.9512L72.4121-58.3008C74.5117-58.8867 76.6602-59.1797 78.9062-59.1797C92.1875-59.1797 103.174-48.4375 103.174-35.0586C103.174-32.7637 102.881-30.6152 102.246-28.5156ZM78.7598 8.34961C87.1582 8.34961 94.9219 6.98242 102.002 4.73633L85.3027-11.9141C83.3008-11.3281 81.1035-11.0352 78.9062-11.0352C65.5273-11.0352 54.541-22.0703 54.541-35.0586C54.541-37.4023 54.834-39.5996 55.4688-41.748L33.5449-63.623C19.3848-53.3203 11.377-40.625 11.377-35.1562C11.377-25.2441 37.4512 8.34961 78.7598 8.34961ZM94.7266-36.084C94.7266-44.3848 87.9883-51.1719 79.6387-51.1719C79.5898-51.1719 79.6387-51.1719 79.5898-51.1719L94.7266-35.9863C94.7266-36.0352 94.7266-36.0352 94.7266-36.084ZM62.5977-34.4727C62.5977-26.123 69.3359-19.3848 77.6855-19.3848C77.7344-19.3848 77.6855-19.3848 77.7344-19.3848L62.5977-34.5215C62.5977-34.4727 62.5977-34.5215 62.5977-34.4727Z"/>
  </g>
  <g id="Heavy-M" transform="matrix(1 0 0 1 2558.37 1126)">
   <path d="M118.652 10.9375C120.312 12.5977 123.047 12.6465 124.707 10.9375C126.367 9.22852 126.367 6.54297 124.707 4.83398L37.9883-81.7871C36.3281-83.4473 33.5938-83.4473 31.8848-81.7871C30.2734-80.127 30.2734-77.3438 31.8848-75.6836ZM123.047-6.64062C137.305-16.748 145.459-29.5898 145.459-35.1562C145.459-45.0195 119.629-78.125 78.2715-78.125C69.9707-78.125 62.2559-76.7578 55.2734-74.4629L70.9473-58.7891C73.291-59.5215 75.7812-59.9609 78.3691-59.9609C92.0898-59.9609 103.369-48.877 103.369-35.1074C103.369-32.4707 102.93-29.9805 102.148-27.6367ZM78.2715 7.86133C86.8164 7.86133 94.7266 6.44531 101.855 4.05273L86.1328-11.6699C83.7402-10.791 81.0547-10.3027 78.3691-10.3027C64.5996-10.3027 53.3203-21.6797 53.3203-35.1074C53.3203-37.9395 53.7598-40.5762 54.7363-43.0664L34.0332-63.7695C19.5312-53.6133 11.1816-40.7227 11.1816-35.1562C11.1816-25.2441 37.5977 7.86133 78.2715 7.86133ZM94.1406-36.084C94.1406-44.4824 87.3535-51.2695 78.9551-51.2695C78.7598-51.2695 78.6133-51.2695 78.4668-51.2695L94.1406-35.5957C94.1406-35.791 94.1406-35.8887 94.1406-36.084ZM62.2559-34.9121C62.2559-26.5137 69.0918-19.7266 77.4414-19.7266C77.6367-19.7266 77.7832-19.7266 77.9785-19.7266L62.2559-35.4492C62.2559-35.2539 62.2559-35.1074 62.2559-34.9121Z"/>
  </g>
  <g id="Bold-M" transform="matrix(1 0 0 1 2262.22 1126)">
   <path d="M117.236 9.61914C118.848 11.2305 121.484 11.2793 123.047 9.61914C124.707 7.91016 124.658 5.41992 123.047 3.80859L38.1348-81.1035C36.5234-82.7148 33.8867-82.7148 32.2754-81.1035C30.7129-79.541 30.7129-76.8555 32.2754-75.293ZM121.729-6.78711C135.986-16.6504 144.58-29.541 144.58-35.1562C144.58-45.0684 118.262-77.6367 77.7344-77.6367C69.4336-77.6367 61.7188-76.2207 54.6875-73.9258L69.3359-59.2773C71.9727-60.2539 74.8047-60.791 77.7832-60.791C91.9922-60.791 103.564-49.4141 103.564-35.1562C103.564-32.1289 103.027-29.2969 102.002-26.6602ZM77.7344 7.32422C86.4746 7.32422 94.5312 5.81055 101.758 3.32031L87.0117-11.4258C84.2285-10.1562 81.0547-9.52148 77.7832-9.52148C63.5254-9.52148 51.9531-21.2402 51.9531-35.1562C51.9531-38.4766 52.5879-41.6992 53.8574-44.5801L34.5215-63.916C19.7266-53.9551 10.9375-40.8203 10.9375-35.1562C10.9375-25.293 37.7441 7.32422 77.7344 7.32422ZM93.5059-36.1328C93.5059-44.5801 86.6699-51.4648 78.1738-51.4648C77.832-51.4648 77.5391-51.416 77.1973-51.3672L93.457-35.1562C93.457-35.498 93.5059-35.791 93.5059-36.1328ZM61.8652-35.4004C61.8652-26.9531 68.7988-20.0684 77.1973-20.0684C77.5879-20.0684 77.8809-20.1172 78.2715-20.1172L61.9141-36.4746C61.8652-36.1328 61.8652-35.7422 61.8652-35.4004Z"/>
  </g>
  <g id="Semibold-M" transform="matrix(1 0 0 1 1965.9 1126)">
   <path d="M116.309 8.69141C117.871 10.2539 120.361 10.3027 121.924 8.69141C123.535 7.03125 123.486 4.63867 121.924 3.07617L38.1836-80.6152C36.6211-82.1777 34.082-82.1777 32.5195-80.6152C31.0059-79.1016 31.0059-76.5137 32.5195-75ZM120.85-6.83594C135.107-16.5527 143.945-29.4922 143.945-35.1562C143.945-45.0684 117.383-77.2949 77.3438-77.2949C69.043-77.2949 61.3281-75.9277 54.248-73.584L68.2129-59.668C71.0449-60.7422 74.1211-61.377 77.3926-61.377C91.9434-61.377 103.711-49.8047 103.711-35.1562C103.711-31.9336 103.076-28.8086 101.904-25.9766ZM77.3438 6.93359C86.1816 6.93359 94.3848 5.41992 101.66 2.7832L87.6465-11.2305C84.5215-9.76562 81.0547-8.93555 77.3926-8.93555C62.7441-8.93555 51.0254-20.9473 51.0254-35.1562C50.9766-38.916 51.8066-42.4316 53.2715-45.6055L34.9121-64.0137C19.873-54.1504 10.791-40.918 10.791-35.1562C10.791-25.293 37.8906 6.93359 77.3438 6.93359ZM93.0176-36.1816C93.0176-44.6289 86.1816-51.5625 77.6367-51.5625C77.1973-51.5625 76.7578-51.5137 76.3672-51.4648L92.9688-34.8633C93.0176-35.3027 93.0176-35.6934 93.0176-36.1816ZM61.5723-35.7422C61.5723-27.2461 68.5547-20.3613 77.0508-20.3613C77.5391-20.3613 77.9785-20.3613 78.418-20.4102L61.6699-37.207C61.6211-36.7188 61.5723-36.2305 61.5723-35.7422Z"/>
  </g>
  <g id="Medium-M" transform="matrix(1 0 0 1 1669.5 1126)">
   <path d="M115.576 8.00781C117.09 9.52148 119.531 9.61914 121.094 8.00781C122.705 6.34766 122.607 4.00391 121.094 2.49023L38.2324-80.2734C36.7188-81.7871 34.2285-81.8359 32.7148-80.2734C31.25-78.8086 31.25-76.2695 32.7148-74.8047ZM120.166-6.93359C134.424-16.5039 143.457-29.4434 143.457-35.2051C143.457-45.0684 116.65-77.0508 77.0508-77.0508C68.75-77.0508 60.9863-75.6348 53.9551-73.291L67.334-59.9121C70.3613-61.1328 73.6328-61.8164 77.0996-61.8164C91.8945-61.8164 103.857-50.0488 103.857-35.1562C103.857-31.7383 103.125-28.418 101.807-25.4395ZM77.0508 6.68945C85.9863 6.68945 94.2871 5.07812 101.611 2.39258L88.1348-11.084C84.8145-9.42383 81.0547-8.54492 77.0996-8.54492C62.207-8.54492 50.3418-20.7031 50.293-35.1562C50.293-39.209 51.1719-43.0176 52.7832-46.3867L35.1562-64.1113C19.9707-54.3457 10.6445-40.9668 10.6445-35.2051C10.6445-25.293 37.9395 6.68945 77.0508 6.68945ZM92.6758-36.1816C92.6758-44.7266 85.8398-51.6113 77.2461-51.6113C76.709-51.6113 76.1719-51.5625 75.6836-51.5137L92.5781-34.668C92.627-35.1074 92.6758-35.6445 92.6758-36.1816ZM61.377-35.9863C61.377-27.4414 68.4082-20.5566 76.9043-20.5566C77.4902-20.5566 78.0273-20.6055 78.5645-20.6543L61.4746-37.7441C61.4258-37.1582 61.377-36.5723 61.377-35.9863Z"/>
  </g>
  <g id="Regular-M" transform="matrix(1 0 0 1 1373.16 1126)">
   <path d="M114.648 7.08008C116.113 8.59375 118.457 8.69141 119.971 7.08008C121.533 5.46875 121.436 3.27148 119.971 1.75781L38.3301-79.834C36.8652-81.2988 34.4238-81.2988 32.959-79.834C31.543-78.418 31.543-75.9277 32.959-74.5117ZM119.287-7.03125C133.545-16.4551 142.871-29.3945 142.871-35.2051C142.871-45.1172 115.771-76.709 76.709-76.709C68.4082-76.709 60.5957-75.293 53.5156-72.9492L66.2109-60.2539C69.4336-61.6211 72.9492-62.4023 76.709-62.4023C91.7969-62.4023 104.004-50.4395 104.004-35.2051C104.004-31.4941 103.174-27.9297 101.709-24.8047ZM76.709 6.29883C85.7422 6.29883 94.1406 4.63867 101.514 1.9043L88.7207-10.8887C85.1074-9.0332 81.0059-8.00781 76.709-8.00781C61.4746-8.00781 49.4141-20.3613 49.3652-35.2051C49.3652-39.5996 50.3906-43.75 52.1973-47.4121L35.498-64.209C20.1172-54.5898 10.498-41.0645 10.498-35.2051C10.498-25.3418 38.0859 6.29883 76.709 6.29883ZM92.2363-36.2305C92.2363-44.7754 85.3516-51.709 76.709-51.709C76.0742-51.709 75.4395-51.6602 74.8535-51.6113L92.1387-34.3262C92.1875-34.9121 92.2363-35.5957 92.2363-36.2305ZM61.1328-36.3281C61.1328-27.7344 68.2129-20.8008 76.7578-20.8008C77.4414-20.8008 78.0762-20.8496 78.7598-20.8984L61.2305-38.4277C61.1816-37.7441 61.1328-37.0117 61.1328-36.3281Z"/>
  </g>
  <g id="Light-M" transform="matrix(1 0 0 1 1077.62 1126)">
   <path d="M114.404 7.12891C115.527 8.30078 117.334 8.34961 118.506 7.12891C119.775 5.85938 119.678 4.15039 118.506 3.02734L35.8887-79.5898C34.7656-80.7129 32.9102-80.7617 31.7383-79.5898C30.6152-78.4668 30.6152-76.5625 31.7383-75.4395ZM116.064-6.39648C131.104-16.0645 140.723-29.3945 140.723-35.2051C140.723-44.9707 113.672-76.3672 75.5371-76.3672C66.6992-76.3672 58.4473-74.7559 51.0254-72.0215L63.6719-59.375C67.2363-61.1816 71.2402-62.207 75.5371-62.207C90.4785-62.207 102.637-50.293 102.637-35.2051C102.637-30.957 101.611-26.9043 99.6582-23.4375ZM75.5371 6.00586C84.9121 6.00586 93.5547 4.15039 101.123 1.12305L88.4277-11.5723C84.6191-9.42383 80.1758-8.1543 75.5371-8.1543C60.4492-8.1543 48.4863-20.5078 48.3887-35.2051C48.3398-39.9414 49.6094-44.4336 51.7578-48.2422L35.7422-64.502C20.0195-54.7852 10.3027-41.0645 10.3027-35.2051C10.3027-25.4883 37.5977 6.00586 75.5371 6.00586ZM88.9648-35.8887C88.9648-43.3105 83.0078-49.2188 75.5859-49.2188C75-49.2188 74.4141-49.1699 73.877-49.1211L88.8672-34.1309C88.916-34.668 88.9648-35.3027 88.9648-35.8887ZM62.1094-35.8887C62.1094-28.4668 68.1641-22.5586 75.5859-22.5586C76.1719-22.5586 76.7578-22.6074 77.3438-22.6562L62.207-37.793C62.1582-37.207 62.1094-36.5234 62.1094-35.8887Z"/>
  </g>
  <g id="Thin-M" transform="matrix(1 0 0 1 782.423 1126)">
   <path d="M114.062 7.22656C114.795 7.91016 115.918 7.95898 116.602 7.22656C117.383 6.44531 117.334 5.37109 116.602 4.6875L32.666-79.2969C32.0312-79.9316 30.8594-80.0293 30.127-79.2969C29.3945-78.5645 29.3945-77.4414 30.127-76.709ZM111.816-5.61523C127.93-15.5762 137.939-29.3457 137.939-35.2051C137.939-44.7754 110.889-75.9766 74.0234-75.9766C64.4531-75.9766 55.6152-74.0234 47.6562-70.752L60.3516-58.2031C64.3066-60.5957 68.9941-61.9629 74.0234-61.9629C88.7207-61.9629 100.928-50.0977 100.928-35.2051C100.928-30.2246 99.4629-25.5371 96.9238-21.582ZM74.0234 5.56641C83.7891 5.56641 92.7734 3.51562 100.635 0.0976562L87.9883-12.4512C83.8867-9.91211 79.1016-8.39844 74.0234-8.39844C59.082-8.39844 47.2656-20.6055 47.0703-35.2051C47.0215-40.3809 48.5352-45.2637 51.123-49.3164L36.0352-64.8926C19.873-55.0781 10.0586-41.0645 10.0586-35.2051C10.0586-25.6348 37.0117 5.56641 74.0234 5.56641ZM84.668-35.4004C84.668-41.3574 79.9805-45.8984 74.0723-45.8984C73.584-45.8984 73.0469-45.8984 72.6074-45.8496L84.5215-33.8867C84.6191-34.375 84.668-34.8633 84.668-35.4004ZM63.3789-35.4004C63.3789-29.4434 68.1152-24.9023 74.0234-24.9023C74.5117-24.9023 75.0488-24.9023 75.5371-24.9512L63.5254-36.9629C63.4277-36.4746 63.3789-35.9375 63.3789-35.4004Z"/>
  </g>
  <g id="Ultralight-M" transform="matrix(1 0 0 1 486.493 1126)">
   <path d="M113.916 7.22656C114.404 7.71484 115.186 7.71484 115.625 7.22656C116.211 6.68945 116.113 6.00586 115.625 5.51758L31.0059-79.1016C30.6152-79.541 29.834-79.6875 29.2969-79.1016C28.8086-78.6621 28.8086-77.8809 29.2969-77.3926ZM109.619-5.17578C126.318-15.2832 136.475-29.3457 136.475-35.2051C136.475-44.6777 109.424-75.7324 73.2422-75.7324C63.2812-75.7324 54.1504-73.6328 45.9961-70.1172L58.6426-57.5684C62.793-60.3027 67.8223-61.8652 73.2422-61.8652C87.793-61.8652 100-50 100-35.2051C100-29.8828 98.3887-24.8535 95.5566-20.6543ZM73.2422 5.37109C83.2031 5.37109 92.3828 3.17383 100.391-0.390625L87.793-12.9395C83.5449-10.1562 78.5156-8.54492 73.2422-8.54492C58.3984-8.54492 46.6309-20.7031 46.4355-35.2051C46.3867-40.625 47.998-45.7031 50.8301-49.9023L36.2305-65.0879C19.8242-55.2246 9.96094-41.0645 9.96094-35.2051C9.96094-25.7324 36.6699 5.37109 73.2422 5.37109ZM82.4707-35.1562C82.4707-40.332 78.3691-44.2383 73.291-44.2383C72.8516-44.2383 72.3633-44.2383 71.9238-44.1406L82.3242-33.7402C82.373-34.1797 82.4707-34.668 82.4707-35.1562ZM64.0625-35.1074C64.0625-29.9316 68.1152-26.0742 73.2422-26.0742C73.6328-26.0742 74.1699-26.0742 74.5605-26.123L64.1602-36.5234C64.1113-36.084 64.0625-35.5957 64.0625-35.1074Z"/>
  </g>
  <g id="Black-S" transform="matrix(1 0 0 1 2871.63 696)">
   <path d="M93.8477 1.75781C95.2148 3.125 97.4609 3.125 98.7793 1.75781C100.098 0.390625 100.146-1.80664 98.7793-3.17383L29.7852-72.1191C28.418-73.4863 26.1719-73.4863 24.8047-72.1191C23.4863-70.8008 23.4863-68.5059 24.8047-67.1875ZM97.3145-12.7441C108.447-20.8008 114.6-30.8594 114.6-35.1562C114.6-42.8711 94.6289-69.1406 61.7188-69.1406C55.2246-69.1406 49.2188-68.0664 43.75-66.3086L56.6895-53.3691C58.3496-53.8086 60.0586-54.0527 61.8164-54.0527C72.2656-54.0527 80.9082-45.6055 80.9082-35.1074C80.9082-33.3008 80.6641-31.5918 80.1758-29.9316ZM61.7188-1.12305C68.3105-1.12305 74.4141-2.19727 79.9316-3.95508L66.9434-16.9434C65.332-16.4551 63.5742-16.2109 61.8164-16.2109C51.3184-16.2109 42.6758-24.9023 42.6758-35.1074C42.6758-36.9629 42.9199-38.7207 43.457-40.4297L26.3672-57.4707C15.2344-49.4141 8.93555-39.4531 8.93555-35.1562C8.93555-27.3926 29.3945-1.12305 61.7188-1.12305ZM74.2676-35.8887C74.2676-42.4316 68.9453-47.7539 62.4023-47.7539L62.3047-47.7539L74.2676-35.791ZM49.0234-34.668C49.0234-28.125 54.3457-22.8027 60.8887-22.8027L60.9863-22.8027L49.0234-34.7656Z"/>
  </g>
  <g id="Heavy-S" transform="matrix(1 0 0 1 2575.19 696)">
   <path d="M92.9199 0.830078C94.2871 2.19727 96.4844 2.24609 97.8027 0.830078C99.1699-0.537109 99.1699-2.68555 97.8027-4.05273L30.127-71.6797C28.7598-73.0469 26.5137-73.0469 25.1953-71.6797C23.877-70.3613 23.877-68.1152 25.1953-66.7969ZM96.7773-12.8906C107.812-20.752 114.209-30.8105 114.209-35.1562C114.209-42.9199 93.9453-68.8477 61.4746-68.8477C55.0293-68.8477 49.0723-67.7734 43.6035-66.0645L55.8594-53.8086C57.666-54.3457 59.5703-54.6387 61.5234-54.6387C72.3145-54.6387 81.2012-45.9961 81.2012-35.1074C81.2012-33.1543 80.9082-31.2012 80.2734-29.3945ZM61.4746-1.46484C68.1152-1.46484 74.3164-2.53906 79.8828-4.39453L67.5781-16.6992C65.7227-16.0156 63.623-15.625 61.5234-15.625C50.6836-15.625 41.8457-24.5605 41.8457-35.1074C41.8457-37.3047 42.1875-39.4043 42.9199-41.3574L26.6602-57.5684C15.3809-49.6094 8.78906-39.5508 8.78906-35.1562C8.78906-27.3926 29.541-1.46484 61.4746-1.46484ZM74.1699-35.9375C74.1699-42.6758 68.7012-48.1445 61.9629-48.1445C61.8164-48.1445 61.7188-48.1445 61.5723-48.0957L74.1211-35.498C74.1699-35.6934 74.1699-35.791 74.1699-35.9375ZM48.6328-35.0586C48.6328-28.3203 54.1504-22.8516 60.8398-22.8516C61.0352-22.8516 61.1328-22.9004 61.3281-22.9004L48.6816-35.5469C48.6328-35.3516 48.6328-35.2051 48.6328-35.0586Z"/>
  </g>
  <g id="Bold-S" transform="matrix(1 0 0 1 2278.8 696)">
   <path d="M91.8945-0.146484C93.2129 1.17188 95.4102 1.2207 96.7285-0.146484C98.0957-1.5625 98.0469-3.66211 96.7285-5.0293L30.4688-71.1914C29.1504-72.5586 26.9531-72.5586 25.5859-71.1914C24.3164-69.9219 24.3164-67.6758 25.5859-66.3574ZM96.1426-13.0859C107.08-20.752 113.77-30.7617 113.77-35.2051C113.77-42.9688 93.1641-68.5059 61.1816-68.5059C54.834-68.5059 48.877-67.4805 43.457-65.7715L54.8828-54.3457C56.8848-54.9805 59.0332-55.3223 61.2305-55.3223C72.4121-55.3223 81.4941-46.3867 81.4941-35.1562C81.4941-32.959 81.1523-30.8105 80.4199-28.8086ZM61.1816-1.85547C67.9199-1.85547 74.2188-2.97852 79.834-4.88281L68.3105-16.4062C66.1133-15.4785 63.7207-14.9902 61.2305-14.9902C50-14.9902 40.918-24.2188 40.918-35.1562C40.918-37.7441 41.4062-40.1855 42.2852-42.3828L27.0508-57.6172C15.5273-49.8535 8.64258-39.6484 8.64258-35.2051C8.64258-27.3926 29.7363-1.85547 61.1816-1.85547ZM74.0723-36.0352C74.0723-42.9199 68.457-48.584 61.5234-48.584C61.2305-48.584 60.9863-48.5352 60.6934-48.5352L74.0234-35.2051C74.0234-35.498 74.0723-35.7422 74.0723-36.0352ZM48.1934-35.4492C48.1934-28.5645 53.9062-22.9492 60.791-22.9492C61.084-22.9492 61.377-22.9492 61.6699-22.998L48.2422-36.4258C48.2422-36.084 48.1934-35.791 48.1934-35.4492Z"/>
  </g>
  <g id="Semibold-S" transform="matrix(1 0 0 1 1982.28 696)">
   <path d="M91.1621-0.878906C92.5293 0.488281 94.6289 0.537109 95.9961-0.878906C97.3633-2.29492 97.3145-4.3457 95.9961-5.66406L30.7617-70.8496C29.3945-72.2168 27.2461-72.2168 25.8789-70.8496C24.6094-69.5801 24.6094-67.334 25.8789-66.0645ZM95.752-13.2324C106.592-20.7031 113.477-30.7129 113.477-35.2051C113.477-42.9688 92.627-68.2617 60.9863-68.2617C54.6875-68.2617 48.7305-67.2852 43.3594-65.5762L54.248-54.6875C56.3477-55.3711 58.6426-55.8105 61.0352-55.8105C72.4609-55.8105 81.7383-46.6797 81.7383-35.1562C81.7383-32.8125 81.2988-30.5176 80.5176-28.418ZM60.9863-2.09961C67.8223-2.09961 74.1211-3.27148 79.7852-5.22461L68.7988-16.1621C66.4062-15.1367 63.7695-14.5508 61.0352-14.5508C49.5117-14.5508 40.2832-23.9746 40.2832-35.1562C40.2832-37.9883 40.8203-40.6738 41.8457-43.1152L27.2949-57.7148C15.625-50 8.49609-39.6973 8.49609-35.2051C8.49609-27.3926 29.834-2.09961 60.9863-2.09961ZM73.9746-36.084C73.9746-43.1152 68.3105-48.877 61.1816-48.877C60.8398-48.877 60.4492-48.8281 60.1074-48.7793L73.9258-35.0098C73.9258-35.3516 73.9746-35.6934 73.9746-36.084ZM47.9004-35.7422C47.9004-28.7109 53.7109-22.998 60.7422-22.998C61.1328-22.998 61.5234-22.998 61.9141-23.0469L47.998-37.0117C47.9492-36.5723 47.9004-36.1816 47.9004-35.7422Z"/>
  </g>
  <g id="Medium-S" transform="matrix(1 0 0 1 1685.74 696)">
   <path d="M90.625-1.41602C91.9434-0.0976562 94.043 0 95.4102-1.41602C96.8262-2.83203 96.7285-4.83398 95.4102-6.20117L30.957-70.6055C29.6387-71.9238 27.4414-71.9238 26.123-70.6055C24.8535-69.3359 24.8535-67.0898 26.123-65.8203ZM95.4102-13.3301C106.25-20.7031 113.232-30.7129 113.232-35.2051C113.232-43.0176 92.2363-68.1152 60.8398-68.1152C54.541-68.1152 48.6328-67.0898 43.2617-65.4297L53.7598-54.9316C55.957-55.7129 58.3496-56.1523 60.8398-56.1523C72.5098-56.1523 81.8848-46.9238 81.8848-35.2051C81.8848-32.7148 81.4453-30.3223 80.5664-28.125ZM60.8398-2.29492C67.7246-2.29492 74.0723-3.4668 79.7363-5.46875L69.1895-16.0156C66.6504-14.8438 63.8184-14.209 60.8398-14.209C49.1211-14.209 39.7949-23.7793 39.7949-35.2051C39.7461-38.2324 40.3809-41.0645 41.5527-43.6523L27.4414-57.7637C15.6738-50.1465 8.39844-39.7461 8.39844-35.2051C8.39844-27.3926 29.9316-2.29492 60.8398-2.29492ZM73.9258-36.1328C73.9258-43.2617 68.1641-49.0723 60.9375-49.0723C60.498-49.0723 60.1074-49.0234 59.668-49.0234L73.8281-34.8633C73.877-35.2539 73.9258-35.6934 73.9258-36.1328ZM47.7051-35.9863C47.7051-28.8574 53.6133-23.0469 60.7422-23.0469C61.1816-23.0469 61.6211-23.0469 62.1094-23.0957L47.7539-37.4512C47.7539-36.9629 47.7051-36.4746 47.7051-35.9863Z"/>
  </g>
  <g id="Regular-S" transform="matrix(1 0 0 1 1389.22 696)">
   <path d="M89.9414-2.09961C91.2598-0.78125 93.3105-0.683594 94.6777-2.09961C96.0938-3.56445 95.9961-5.51758 94.6777-6.83594L31.2012-70.2637C29.8828-71.582 27.7344-71.582 26.416-70.2637C25.1465-68.9941 25.1465-66.7969 26.416-65.5273ZM94.9707-13.4277C105.762-20.7031 112.939-30.6641 112.939-35.2051C112.939-43.0664 91.6992-67.8711 60.6445-67.8711C54.3945-67.8711 48.5352-66.8945 43.1641-65.2344L53.125-55.2734C55.4688-56.1523 57.959-56.5918 60.6445-56.5918C72.5586-56.5918 82.0801-47.2168 82.0801-35.2051C82.0801-32.5684 81.5918-30.0293 80.6641-27.7344ZM60.6445-2.53906C67.5781-2.53906 74.0234-3.75977 79.6875-5.76172L69.6777-15.8203C66.9434-14.502 63.8672-13.8184 60.6445-13.8184C48.6328-13.8184 39.1602-23.5352 39.1113-35.2051C39.1113-38.4766 39.8438-41.6016 41.1133-44.3848L27.6855-57.8125C15.7715-50.293 8.30078-39.7949 8.30078-35.2051C8.30078-27.3926 30.0293-2.53906 60.6445-2.53906ZM73.8281-36.1816C73.8281-43.4082 67.9688-49.3652 60.6445-49.3652C60.1074-49.3652 59.5703-49.3164 59.082-49.2676L73.7305-34.6191C73.7793-35.1074 73.8281-35.6445 73.8281-36.1816ZM47.4121-36.2793C47.4121-29.0039 53.418-23.0957 60.6934-23.0957C61.2793-23.0957 61.7676-23.1445 62.3535-23.1934L47.5098-38.0371C47.4609-37.4512 47.4121-36.8652 47.4121-36.2793Z"/>
  </g>
  <g id="Light-S" transform="matrix(1 0 0 1 1093.51 696)">
   <path d="M89.6973-2.05078C90.7227-1.02539 92.334-0.976562 93.4082-2.05078C94.5312-3.17383 94.4336-4.73633 93.4082-5.76172L29.0527-70.0684C28.0273-71.0938 26.3672-71.0938 25.3418-70.0684C24.3164-69.0918 24.3164-67.3828 25.3418-66.3574ZM92.1387-12.8906C103.662-20.3613 111.084-30.6641 111.084-35.2051C111.084-42.9199 89.8438-67.5781 59.6191-67.5781C52.8809-67.5781 46.6309-66.4062 40.918-64.4043L50.8789-54.4922C53.5156-55.7129 56.4453-56.4453 59.6191-56.4453C71.3867-56.4453 80.957-47.0703 80.957-35.2051C80.957-32.0801 80.2246-29.1016 78.8574-26.5137ZM59.6191-2.83203C66.8457-2.83203 73.4863-4.19922 79.3945-6.44531L69.3848-16.4062C66.4551-14.8438 63.1348-13.9648 59.6191-13.9648C47.7539-13.9648 38.3301-23.6328 38.2812-35.2051C38.2812-38.7695 39.1602-42.1875 40.7227-45.1172L27.9297-58.0566C15.7227-50.4883 8.1543-39.7949 8.1543-35.2051C8.1543-27.5391 29.6387-2.83203 59.6191-2.83203ZM70.9473-35.8887C70.9473-42.1387 65.918-47.168 59.6191-47.168C59.1797-47.168 58.6914-47.1191 58.252-47.0703L70.8496-34.4727C70.8984-34.9121 70.9473-35.4004 70.9473-35.8887ZM48.291-35.9375C48.291-29.6875 53.418-24.6094 59.668-24.6094C60.1562-24.6094 60.6445-24.6582 61.1328-24.707L48.3887-37.5C48.3398-36.9629 48.291-36.4258 48.291-35.9375Z"/>
  </g>
  <g id="Thin-S" transform="matrix(1 0 0 1 798.146 696)">
   <path d="M89.4531-2.00195C90.0879-1.36719 91.1133-1.31836 91.748-2.00195C92.4316-2.68555 92.3828-3.66211 91.748-4.29688L26.2207-69.8242C25.6348-70.4102 24.5605-70.459 23.9258-69.8242C23.291-69.1895 23.291-68.1152 23.9258-67.4805ZM88.4277-12.1582C100.83-19.9219 108.594-30.6152 108.594-35.2051C108.594-42.7246 87.4023-67.2363 58.3008-67.2363C50.9277-67.2363 44.1406-65.7715 37.9883-63.2812L47.9004-53.4668C50.9277-55.2246 54.4922-56.25 58.3008-56.25C69.8242-56.25 79.3945-46.9238 79.3945-35.2051C79.3945-31.4453 78.3203-27.9297 76.4648-24.9023ZM58.3008-3.17383C65.8691-3.17383 72.8516-4.73633 78.9551-7.32422L69.043-17.2363C65.8691-15.2832 62.207-14.1602 58.3008-14.1602C46.582-14.1602 37.2559-23.7305 37.1582-35.2051C37.1094-39.209 38.2324-42.9199 40.1855-46.0449L28.2227-58.3984C15.625-50.7324 7.95898-39.7949 7.95898-35.2051C7.95898-27.6855 29.1016-3.17383 58.3008-3.17383ZM67.1387-35.4492C67.1387-40.3809 63.2324-44.2383 58.3008-44.2383C57.9102-44.2383 57.5195-44.2383 57.1289-44.1895L67.041-34.2285C67.0898-34.6191 67.1387-35.0586 67.1387-35.4492ZM49.4141-35.4492C49.4141-30.5176 53.418-26.6602 58.3008-26.6602C58.6914-26.6602 59.1309-26.709 59.5215-26.7578L49.5117-36.7676C49.4629-36.3281 49.4141-35.8887 49.4141-35.4492Z"/>
  </g>
  <g id="Ultralight-S" transform="matrix(1 0 0 1 502.118 696)">
   <path d="M89.3066-1.95312C89.7461-1.51367 90.4297-1.51367 90.8691-1.95312C91.3574-2.44141 91.3086-3.125 90.8691-3.56445L24.7559-69.6777C24.3652-70.0684 23.6816-70.166 23.1934-69.6777C22.7539-69.2383 22.7539-68.5059 23.1934-68.0664ZM86.4746-11.8164C99.4141-19.6777 107.324-30.6152 107.324-35.2051C107.324-42.627 86.1328-67.041 57.5684-67.041C49.9023-67.041 42.8223-65.4297 36.4746-62.7441L46.3867-52.9297C49.6094-54.9316 53.4668-56.1523 57.5684-56.1523C69.043-56.1523 78.6133-46.8262 78.6133-35.2051C78.6133-31.1523 77.3926-27.2949 75.2441-24.0723ZM57.5684-3.36914C65.3809-3.36914 72.5098-5.07812 78.7109-7.8125L68.8477-17.627C65.5762-15.5273 61.7188-14.2578 57.5684-14.2578C45.9473-14.2578 36.7188-23.8281 36.5723-35.2051C36.5234-39.4043 37.7441-43.3105 39.8926-46.582L28.3691-58.5449C15.5273-50.8301 7.86133-39.7949 7.86133-35.2051C7.86133-27.7832 28.8086-3.36914 57.5684-3.36914ZM65.1855-35.2539C65.1855-39.502 61.8652-42.7246 57.6172-42.7246C57.2754-42.7246 56.8848-42.7246 56.543-42.6758L65.0879-34.1309C65.1367-34.4727 65.1855-34.8633 65.1855-35.2539ZM50-35.2051C50-30.957 53.3691-27.7344 57.6172-27.7344C57.959-27.7344 58.3496-27.7344 58.6914-27.7832L50.0977-36.377C50.0488-36.0352 50-35.5957 50-35.2051Z"/>
  </g>
 </g>
</svg>
