<?xml version="1.0" encoding="UTF-8"?>
<!--Generator: Apple Native CoreSVG 149-->
<!DOCTYPE svg
PUBLIC "-//W3C//DTD SVG 1.1//EN"
       "http://www.w3.org/Graphics/SVG/1.1/DTD/svg11.dtd">
<svg version="1.1" xmlns="http://www.w3.org/2000/svg" xmlns:xlink="http://www.w3.org/1999/xlink" width="3300" height="2200">
 <!--glyph: "uni1002EE.medium", point size: 100.000000, font version: "Version 16.0d18e1", template writer version: "8"-->
 <g id="Notes">
  <rect height="2200" id="artboard" style="fill:white;opacity:1" width="3300" x="0" y="0"/>
  <line id="" style="fill:none;stroke:black;opacity:1;stroke-width:0.5;" x1="263" x2="3036" y1="292" y2="292"/>
  <text style="stroke:none;fill:black;font-family:-apple-system,&quot;SF Pro Display&quot;,&quot;SF Pro Text&quot;,Helvetica,sans-serif;font-weight:bold;" transform="matrix(1 0 0 1 263 322)">Weight/Scale Variations</text>
  <text style="stroke:none;fill:black;font-family:-apple-system,&quot;SF Pro Display&quot;,&quot;SF Pro Text&quot;,Helvetica,sans-serif;text-anchor:middle;" transform="matrix(1 0 0 1 559.711 322)">Ultralight</text>
  <text style="stroke:none;fill:black;font-family:-apple-system,&quot;SF Pro Display&quot;,&quot;SF Pro Text&quot;,Helvetica,sans-serif;text-anchor:middle;" transform="matrix(1 0 0 1 856.422 322)">Thin</text>
  <text style="stroke:none;fill:black;font-family:-apple-system,&quot;SF Pro Display&quot;,&quot;SF Pro Text&quot;,Helvetica,sans-serif;text-anchor:middle;" transform="matrix(1 0 0 1 1153.13 322)">Light</text>
  <text style="stroke:none;fill:black;font-family:-apple-system,&quot;SF Pro Display&quot;,&quot;SF Pro Text&quot;,Helvetica,sans-serif;text-anchor:middle;" transform="matrix(1 0 0 1 1449.84 322)">Regular</text>
  <text style="stroke:none;fill:black;font-family:-apple-system,&quot;SF Pro Display&quot;,&quot;SF Pro Text&quot;,Helvetica,sans-serif;text-anchor:middle;" transform="matrix(1 0 0 1 1746.56 322)">Medium</text>
  <text style="stroke:none;fill:black;font-family:-apple-system,&quot;SF Pro Display&quot;,&quot;SF Pro Text&quot;,Helvetica,sans-serif;text-anchor:middle;" transform="matrix(1 0 0 1 2043.27 322)">Semibold</text>
  <text style="stroke:none;fill:black;font-family:-apple-system,&quot;SF Pro Display&quot;,&quot;SF Pro Text&quot;,Helvetica,sans-serif;text-anchor:middle;" transform="matrix(1 0 0 1 2339.98 322)">Bold</text>
  <text style="stroke:none;fill:black;font-family:-apple-system,&quot;SF Pro Display&quot;,&quot;SF Pro Text&quot;,Helvetica,sans-serif;text-anchor:middle;" transform="matrix(1 0 0 1 2636.69 322)">Heavy</text>
  <text style="stroke:none;fill:black;font-family:-apple-system,&quot;SF Pro Display&quot;,&quot;SF Pro Text&quot;,Helvetica,sans-serif;text-anchor:middle;" transform="matrix(1 0 0 1 2933.4 322)">Black</text>
  <line id="" style="fill:none;stroke:black;opacity:1;stroke-width:0.5;" x1="263" x2="3036" y1="1903" y2="1903"/>
  <g id="" transform="matrix(1 0 0 1 263 1933)">
   <path d="M9.24805 0.830078C13.5547 0.830078 17.1387-2.74414 17.1387-7.05078C17.1387-11.3574 13.5449-14.9316 9.23828-14.9316C4.94141-14.9316 1.36719-11.3574 1.36719-7.05078C1.36719-2.74414 4.95117 0.830078 9.24805 0.830078ZM9.24805-0.654297C5.70312-0.654297 2.87109-3.49609 2.87109-7.05078C2.87109-10.6055 5.69336-13.4473 9.23828-13.4473C12.793-13.4473 15.6348-10.6055 15.6445-7.05078C15.6543-3.49609 12.8027-0.654297 9.24805-0.654297ZM6.39648-6.31836L8.50586-6.31836L8.50586-4.19922C8.50586-3.75977 8.79883-3.45703 9.22852-3.45703C9.67773-3.45703 9.9707-3.75977 9.9707-4.19922L9.9707-6.31836L12.0996-6.31836C12.5391-6.31836 12.8418-6.61133 12.8418-7.04102C12.8418-7.48047 12.5391-7.7832 12.0996-7.7832L9.9707-7.7832L9.9707-9.89258C9.9707-10.3418 9.67773-10.6445 9.22852-10.6445C8.79883-10.6445 8.50586-10.3418 8.50586-9.89258L8.50586-7.7832L6.39648-7.7832C5.94727-7.7832 5.64453-7.48047 5.64453-7.04102C5.64453-6.61133 5.94727-6.31836 6.39648-6.31836Z"/>
  </g>
  <g id="" transform="matrix(1 0 0 1 281.506 1933)">
   <path d="M11.709 2.91016C17.1582 2.91016 21.6699-1.61133 21.6699-7.05078C21.6699-12.5 17.1484-17.0117 11.6992-17.0117C6.25977-17.0117 1.74805-12.5 1.74805-7.05078C1.74805-1.61133 6.26953 2.91016 11.709 2.91016ZM11.709 1.25C7.09961 1.25 3.41797-2.44141 3.41797-7.05078C3.41797-11.6602 7.08984-15.3516 11.6992-15.3516C16.3086-15.3516 20-11.6602 20.0098-7.05078C20.0195-2.44141 16.3184 1.25 11.709 1.25ZM7.98828-6.23047L10.8789-6.23047L10.8789-3.32031C10.8789-2.83203 11.2109-2.5 11.6895-2.5C12.1777-2.5 12.5195-2.83203 12.5195-3.32031L12.5195-6.23047L15.4297-6.23047C15.918-6.23047 16.25-6.5625 16.25-7.04102C16.25-7.5293 15.918-7.87109 15.4297-7.87109L12.5195-7.87109L12.5195-10.7617C12.5195-11.2695 12.1777-11.6016 11.6895-11.6016C11.2109-11.6016 10.8789-11.2598 10.8789-10.7617L10.8789-7.87109L7.98828-7.87109C7.48047-7.87109 7.14844-7.5293 7.14844-7.04102C7.14844-6.5625 7.49023-6.23047 7.98828-6.23047Z"/>
  </g>
  <g id="" transform="matrix(1 0 0 1 304.924 1933)">
   <path d="M14.9707 5.66406C21.9336 5.66406 27.6953-0.0976562 27.6953-7.05078C27.6953-14.0137 21.9238-19.7754 14.9609-19.7754C8.00781-19.7754 2.25586-14.0137 2.25586-7.05078C2.25586-0.0976562 8.01758 5.66406 14.9707 5.66406ZM14.9707 3.84766C8.93555 3.84766 4.08203-1.01562 4.08203-7.05078C4.08203-13.0957 8.92578-17.9492 14.9609-17.9492C21.0059-17.9492 25.8594-13.0957 25.8691-7.05078C25.8789-1.01562 21.0156 3.84766 14.9707 3.84766ZM10.0586-6.14258L14.0625-6.14258L14.0625-2.12891C14.0625-1.5918 14.4336-1.2207 14.9512-1.2207C15.4883-1.2207 15.8594-1.5918 15.8594-2.12891L15.8594-6.14258L19.8828-6.14258C20.4102-6.14258 20.791-6.51367 20.791-7.03125C20.791-7.56836 20.4199-7.94922 19.8828-7.94922L15.8594-7.94922L15.8594-11.9531C15.8594-12.5098 15.4883-12.8809 14.9512-12.8809C14.4336-12.8809 14.0625-12.5 14.0625-11.9531L14.0625-7.94922L10.0586-7.94922C9.50195-7.94922 9.13086-7.56836 9.13086-7.03125C9.13086-6.51367 9.51172-6.14258 10.0586-6.14258Z"/>
  </g>
  <text style="stroke:none;fill:black;font-family:-apple-system,&quot;SF Pro Display&quot;,&quot;SF Pro Text&quot;,Helvetica,sans-serif;font-weight:bold;" transform="matrix(1 0 0 1 263 1953)">Design Variations</text>
  <text style="stroke:none;fill:black;font-family:-apple-system,&quot;SF Pro Display&quot;,&quot;SF Pro Text&quot;,Helvetica,sans-serif;" transform="matrix(1 0 0 1 263 1971)">Symbols are supported in up to nine weights and three scales.</text>
  <text style="stroke:none;fill:black;font-family:-apple-system,&quot;SF Pro Display&quot;,&quot;SF Pro Text&quot;,Helvetica,sans-serif;" transform="matrix(1 0 0 1 263 1989)">For optimal layout with text and other symbols, vertically align</text>
  <text style="stroke:none;fill:black;font-family:-apple-system,&quot;SF Pro Display&quot;,&quot;SF Pro Text&quot;,Helvetica,sans-serif;" transform="matrix(1 0 0 1 263 2007)">symbols with the adjacent text.</text>
  <line id="" style="fill:none;stroke:#00AEEF;stroke-width:0.5;opacity:1.0;" x1="776" x2="776" y1="1919" y2="1933"/>
  <g id="" transform="matrix(1 0 0 1 776 1933)">
   <path d="M3.31055 0.126953C3.82812 0.126953 4.08203-0.0683594 4.26758-0.605469L5.52734-4.0625L11.2891-4.0625L12.5488-0.605469C12.7344-0.0683594 12.9883 0.126953 13.4961 0.126953C14.0137 0.126953 14.3457-0.185547 14.3457-0.673828C14.3457-0.839844 14.3164-0.986328 14.2383-1.20117L9.6582-13.3887C9.43359-13.9941 9.0332-14.2871 8.4082-14.2871C7.80273-14.2871 7.39258-13.9941 7.17773-13.3984L2.59766-1.19141C2.51953-0.976562 2.49023-0.830078 2.49023-0.664062C2.49023-0.175781 2.80273 0.126953 3.31055 0.126953ZM6.00586-5.53711L8.37891-12.1094L8.42773-12.1094L10.8008-5.53711Z"/>
  </g>
  <line id="" style="fill:none;stroke:#00AEEF;stroke-width:0.5;opacity:1.0;" x1="792.836" x2="792.836" y1="1919" y2="1933"/>
  <text style="stroke:none;fill:black;font-family:-apple-system,&quot;SF Pro Display&quot;,&quot;SF Pro Text&quot;,Helvetica,sans-serif;font-weight:bold;" transform="matrix(1 0 0 1 776 1953)">Margins</text>
  <text style="stroke:none;fill:black;font-family:-apple-system,&quot;SF Pro Display&quot;,&quot;SF Pro Text&quot;,Helvetica,sans-serif;" transform="matrix(1 0 0 1 776 1971)">Leading and trailing margins on the left and right side of each symbol</text>
  <text style="stroke:none;fill:black;font-family:-apple-system,&quot;SF Pro Display&quot;,&quot;SF Pro Text&quot;,Helvetica,sans-serif;" transform="matrix(1 0 0 1 776 1989)">can be adjusted by modifying the x-location of the margin guidelines.</text>
  <text style="stroke:none;fill:black;font-family:-apple-system,&quot;SF Pro Display&quot;,&quot;SF Pro Text&quot;,Helvetica,sans-serif;" transform="matrix(1 0 0 1 776 2007)">Modifications are automatically applied proportionally to all</text>
  <text style="stroke:none;fill:black;font-family:-apple-system,&quot;SF Pro Display&quot;,&quot;SF Pro Text&quot;,Helvetica,sans-serif;" transform="matrix(1 0 0 1 776 2025)">scales and weights.</text>
  <g id="" transform="matrix(1 0 0 1 1289 1933)">
   <path d="M2.8418 1.86523L4.54102 3.57422C5.40039 4.44336 6.38672 4.38477 7.31445 3.35938L17.4902-7.85156C17.7539-7.76367 18.0273-7.7832 18.3398-7.8418L19.4043-8.03711L20.0684-7.36328L20.0293-6.80664C19.9902-6.30859 20.1172-5.92773 20.6055-5.44922L21.3672-4.70703C21.8457-4.22852 22.4609-4.19922 22.9297-4.66797L25.8398-7.58789C26.3086-8.05664 26.2891-8.65234 25.8105-9.13086L25.0391-9.89258C24.5605-10.3711 24.1895-10.5273 23.7109-10.4883L23.1348-10.4395L22.4902-11.0742L22.7344-12.1973C22.8613-12.7637 22.7051-13.2031 22.1191-13.7891L19.9219-15.9766C16.582-19.2969 12.1484-19.2188 9.25781-16.3281C8.83789-15.918 8.80859-15.3418 9.04297-14.9512C9.27734-14.5898 9.73633-14.3555 10.3809-14.5215C11.8457-14.8633 13.3691-14.9219 14.7949-13.9844L14.209-12.5293C14.0137-12.0508 13.9844-11.6504 14.1113-11.2891L3.04688-0.898438C2.06055 0.0195312 1.98242 0.996094 2.8418 1.86523ZM10.752-15.957C13.1836-17.7344 16.4746-17.4316 18.7012-15.2051L21.1328-12.793C21.3672-12.5586 21.4062-12.373 21.3379-12.0312L21.0156-10.5469L22.5195-9.0625L23.5059-9.12109C23.7598-9.13086 23.8379-9.11133 24.0332-8.91602L24.6094-8.33984L22.168-5.89844L21.5918-6.47461C21.3965-6.66992 21.3672-6.74805 21.377-7.01172L21.4453-7.98828L19.9512-9.47266L18.4277-9.21875C18.1055-9.15039 17.959-9.17969 17.7148-9.41406L15.7129-11.416C15.459-11.6504 15.4297-11.8164 15.5859-12.1875L16.4648-14.2773C14.9023-15.7324 12.8711-16.3574 10.8398-15.7617C10.6836-15.7227 10.625-15.8496 10.752-15.957ZM5.27344 2.30469L4.10156 1.14258C3.63281 0.683594 3.74023 0.341797 4.14062-0.0195312L14.9512-10.1953L16.416-8.71094L6.42578 2.27539C6.07422 2.67578 5.74219 2.77344 5.27344 2.30469Z"/>
  </g>
  <text style="stroke:none;fill:black;font-family:-apple-system,&quot;SF Pro Display&quot;,&quot;SF Pro Text&quot;,Helvetica,sans-serif;font-weight:bold;" transform="matrix(1 0 0 1 1289 1953)">Exporting</text>
  <text style="stroke:none;fill:black;font-family:-apple-system,&quot;SF Pro Display&quot;,&quot;SF Pro Text&quot;,Helvetica,sans-serif;" transform="matrix(1 0 0 1 1289 1971)">Symbols should be outlined when exporting to ensure the</text>
  <text style="stroke:none;fill:black;font-family:-apple-system,&quot;SF Pro Display&quot;,&quot;SF Pro Text&quot;,Helvetica,sans-serif;" transform="matrix(1 0 0 1 1289 1989)">design is preserved when submitting to Xcode.</text>
  <text id="template-version" style="stroke:none;fill:black;font-family:-apple-system,&quot;SF Pro Display&quot;,&quot;SF Pro Text&quot;,Helvetica,sans-serif;text-anchor:end;" transform="matrix(1 0 0 1 3036 1933)">Template v.2.0</text>
  <text style="stroke:none;fill:black;font-family:-apple-system,&quot;SF Pro Display&quot;,&quot;SF Pro Text&quot;,Helvetica,sans-serif;text-anchor:end;" transform="matrix(1 0 0 1 3036 1951)">Requires Xcode 12 or greater</text>
  <text style="stroke:none;fill:black;font-family:-apple-system,&quot;SF Pro Display&quot;,&quot;SF Pro Text&quot;,Helvetica,sans-serif;text-anchor:end;" transform="matrix(1 0 0 1 3036 1969)">Generated from eye.fill</text>
  <text style="stroke:none;fill:black;font-family:-apple-system,&quot;SF Pro Display&quot;,&quot;SF Pro Text&quot;,Helvetica,sans-serif;text-anchor:end;" transform="matrix(1 0 0 1 3036 1987)">Typeset at 100 points</text>
  <text style="stroke:none;fill:black;font-family:-apple-system,&quot;SF Pro Display&quot;,&quot;SF Pro Text&quot;,Helvetica,sans-serif;" transform="matrix(1 0 0 1 263 726)">Small</text>
  <text style="stroke:none;fill:black;font-family:-apple-system,&quot;SF Pro Display&quot;,&quot;SF Pro Text&quot;,Helvetica,sans-serif;" transform="matrix(1 0 0 1 263 1156)">Medium</text>
  <text style="stroke:none;fill:black;font-family:-apple-system,&quot;SF Pro Display&quot;,&quot;SF Pro Text&quot;,Helvetica,sans-serif;" transform="matrix(1 0 0 1 263 1586)">Large</text>
 </g>
 <g id="Guides">
  <g id="H-reference" style="fill:#27AAE1;stroke:none;" transform="matrix(1 0 0 1 339 696)">
   <path d="M0.976562 0L3.66211 0L12.9883-24.4629L45.752-24.4629L55.127 0L57.7637 0L30.6152-70.459L28.125-70.459ZM29.3457-67.1387L29.4434-67.1387L44.873-26.709L13.8672-26.709Z"/>
  </g>
  <line id="Baseline-S" style="fill:none;stroke:#27AAE1;opacity:1;stroke-width:0.5;" x1="263" x2="3036" y1="696" y2="696"/>
  <line id="Capline-S" style="fill:none;stroke:#27AAE1;opacity:1;stroke-width:0.5;" x1="263" x2="3036" y1="625.541" y2="625.541"/>
  <g id="H-reference" style="fill:#27AAE1;stroke:none;" transform="matrix(1 0 0 1 339 1126)">
   <path d="M0.976562 0L3.66211 0L12.9883-24.4629L45.752-24.4629L55.127 0L57.7637 0L30.6152-70.459L28.125-70.459ZM29.3457-67.1387L29.4434-67.1387L44.873-26.709L13.8672-26.709Z"/>
  </g>
  <line id="Baseline-M" style="fill:none;stroke:#27AAE1;opacity:1;stroke-width:0.5;" x1="263" x2="3036" y1="1126" y2="1126"/>
  <line id="Capline-M" style="fill:none;stroke:#27AAE1;opacity:1;stroke-width:0.5;" x1="263" x2="3036" y1="1055.54" y2="1055.54"/>
  <g id="H-reference" style="fill:#27AAE1;stroke:none;" transform="matrix(1 0 0 1 339 1556)">
   <path d="M0.976562 0L3.66211 0L12.9883-24.4629L45.752-24.4629L55.127 0L57.7637 0L30.6152-70.459L28.125-70.459ZM29.3457-67.1387L29.4434-67.1387L44.873-26.709L13.8672-26.709Z"/>
  </g>
  <line id="Baseline-L" style="fill:none;stroke:#27AAE1;opacity:1;stroke-width:0.5;" x1="263" x2="3036" y1="1556" y2="1556"/>
  <line id="Capline-L" style="fill:none;stroke:#27AAE1;opacity:1;stroke-width:0.5;" x1="263" x2="3036" y1="1485.54" y2="1485.54"/>
  <line id="left-margin" style="fill:none;stroke:#00AEEF;stroke-width:0.5;opacity:1.0;" x1="1373.16" x2="1373.16" y1="1030.79" y2="1150.12"/>
  <line id="right-margin" style="fill:none;stroke:#00AEEF;stroke-width:0.5;opacity:1.0;" x1="1526.53" x2="1526.53" y1="1030.79" y2="1150.12"/>
 </g>
 <g id="Symbols">
  <g id="Black-L" transform="matrix(1 0 0 1 2832.15 1556)">
   <path d="M101.221 20.3125C154.639 20.3125 188.086-22.3145 188.086-35.1074C188.086-47.9004 154.639-90.5273 101.221-90.5273C48.6816-90.5273 14.4043-47.9004 14.4043-35.1074C14.4043-22.3145 48.6816 20.3125 101.221 20.3125ZM101.318-2.7832C83.3496-2.7832 68.75-17.627 68.7012-35.0586C68.7012-53.125 83.3496-67.3828 101.318-67.3828C119.238-67.3828 133.838-53.0273 133.838-35.0586C133.838-17.627 119.238-2.7832 101.318-2.7832ZM101.221-21.582C108.691-21.582 114.746-27.6367 114.746-35.0098C114.746-42.3828 108.691-48.584 101.221-48.584C93.75-48.584 87.793-42.3828 87.793-35.0098C87.793-27.6367 93.75-21.582 101.221-21.582Z"/>
  </g>
  <g id="Heavy-L" transform="matrix(1 0 0 1 2536.2 1556)">
   <path d="M100.439 19.8242C153.027 19.8242 186.816-22.3633 186.816-35.1562C186.816-47.9004 152.979-90.0391 100.439-90.0391C48.7305-90.0391 14.1602-47.9004 14.1602-35.1562C14.1602-22.3633 48.7305 19.8242 100.439 19.8242ZM100.537-2.19727C82.2266-2.19727 67.3828-17.2852 67.334-35.1074C67.334-53.4668 82.2266-68.0664 100.537-68.0664C118.799-68.0664 133.691-53.418 133.691-35.1074C133.691-17.2852 118.799-2.19727 100.537-2.19727ZM100.488-21.9238C107.764-21.9238 113.721-27.8809 113.721-35.0586C113.721-42.2852 107.764-48.291 100.488-48.291C93.1641-48.291 87.3047-42.2852 87.3047-35.0586C87.3047-27.8809 93.1641-21.9238 100.488-21.9238Z"/>
  </g>
  <g id="Bold-L" transform="matrix(1 0 0 1 2240.34 1556)">
   <path d="M99.6094 19.2383C151.221 19.2383 185.352-22.4609 185.352-35.1562C185.352-47.9004 151.172-89.502 99.6094-89.502C48.7793-89.502 13.916-47.9004 13.916-35.1562C13.916-22.4609 48.7305 19.2383 99.6094 19.2383ZM99.707-1.51367C80.9082-1.51367 65.8691-16.8945 65.8203-35.1074C65.7715-53.9062 80.9082-68.7988 99.707-68.7988C118.311-68.7988 133.496-53.9062 133.496-35.1074C133.496-16.8945 118.311-1.51367 99.707-1.51367ZM99.6582-22.3145C106.738-22.3145 112.549-28.0762 112.549-35.1074C112.549-42.1387 106.738-47.998 99.6582-47.998C92.5293-47.998 86.7676-42.1387 86.7676-35.1074C86.7676-28.0762 92.5293-22.3145 99.6582-22.3145Z"/>
  </g>
  <g id="Semibold-L" transform="matrix(1 0 0 1 1944.22 1556)">
   <path d="M99.0723 18.7988C150 18.7988 184.375-22.5098 184.375-35.1562C184.375-47.8516 149.902-89.1113 99.0723-89.1113C48.8281-89.1113 13.7207-47.8516 13.7207-35.1562C13.7207-22.5098 48.7305 18.7988 99.0723 18.7988ZM99.0723-1.02539C80.0293-1.02539 64.8438-16.6016 64.7461-35.1562C64.6973-54.1992 80.0293-69.2871 99.0723-69.2871C117.969-69.2871 133.35-54.1992 133.35-35.1562C133.35-16.6016 117.969-1.02539 99.0723-1.02539ZM99.0723-22.5586C106.006-22.5586 111.719-28.2715 111.719-35.1562C111.719-42.0898 106.006-47.7539 99.0723-47.7539C92.0898-47.7539 86.377-42.0898 86.377-35.1562C86.377-28.2715 92.0898-22.5586 99.0723-22.5586Z"/>
  </g>
  <g id="Medium-L" transform="matrix(1 0 0 1 1647.95 1556)">
   <path d="M98.6328 18.5059C149.072 18.5059 183.594-22.5098 183.594-35.1562C183.594-47.8516 148.926-88.8672 98.6328-88.8672C48.8281-88.8672 13.623-47.8516 13.623-35.1562C13.623-22.5098 48.7305 18.5059 98.6328 18.5059ZM98.6328-0.683594C79.3945-0.683594 64.0625-16.4062 63.9648-35.1562C63.916-54.4434 79.3945-69.6777 98.6328-69.6777C117.725-69.6777 133.252-54.4434 133.252-35.1562C133.252-16.4062 117.725-0.683594 98.6328-0.683594ZM98.6328-22.7539C105.469-22.7539 111.133-28.3691 111.133-35.1562C111.133-41.9922 105.469-47.6074 98.6328-47.6074C91.748-47.6074 86.084-41.9922 86.084-35.1562C86.084-28.3691 91.748-22.7539 98.6328-22.7539Z"/>
  </g>
  <g id="Regular-L" transform="matrix(1 0 0 1 1351.82 1556)">
   <path d="M98.0469 18.1152C147.803 18.1152 182.617-22.5586 182.617-35.2051C182.617-47.8516 147.656-88.4766 98.0469-88.4766C48.877-88.4766 13.4277-47.8516 13.4277-35.2051C13.4277-22.5586 48.7793 18.1152 98.0469 18.1152ZM98.0469-0.244141C78.5156-0.244141 63.0371-16.1621 62.9395-35.2051C62.8418-54.7363 78.5156-70.166 98.0469-70.166C117.432-70.166 133.105-54.7363 133.105-35.2051C133.105-16.1621 117.432-0.244141 98.0469-0.244141ZM98.0957-22.998C104.785-22.998 110.352-28.5645 110.352-35.2051C110.352-41.8945 104.785-47.4121 98.0957-47.4121C91.3086-47.4121 85.6934-41.8945 85.6934-35.2051C85.6934-28.5645 91.3086-22.998 98.0957-22.998Z"/>
  </g>
  <g id="Light-L" transform="matrix(1 0 0 1 1056.4 1556)">
   <path d="M96.7285 17.7734C145.557 17.7734 180.225-22.7051 180.225-35.2051C180.225-47.7051 145.312-88.1348 96.7285-88.1348C48.3887-88.1348 13.2324-47.7051 13.2324-35.2051C13.2324-22.7051 48.2422 17.7734 96.7285 17.7734ZM96.7285-0.439453C77.3438-0.439453 61.9629-16.2598 61.8164-35.2051C61.7676-54.5898 77.3438-69.9707 96.7285-69.9707C115.918-69.9707 131.641-54.5898 131.641-35.2051C131.641-16.2598 115.918-0.439453 96.7285-0.439453ZM96.7773-23.7305C103.125-23.7305 108.35-28.9062 108.35-35.2051C108.35-41.5527 103.125-46.6797 96.7773-46.6797C90.3809-46.6797 85.1074-41.5527 85.1074-35.2051C85.1074-28.9062 90.3809-23.7305 96.7773-23.7305Z"/>
  </g>
  <g id="Thin-L" transform="matrix(1 0 0 1 761.403 1556)">
   <path d="M95.0195 17.2852C142.578 17.2852 177.1-22.9004 177.1-35.2051C177.1-47.4609 142.188-87.6465 95.0195-87.6465C47.7539-87.6465 12.9395-47.4609 12.9395-35.2051C12.9395-22.9004 47.5586 17.2852 95.0195 17.2852ZM95.0195-0.683594C75.8301-0.683594 60.5469-16.4062 60.3516-35.2051C60.3027-54.3945 75.8301-69.6777 95.0195-69.6777C113.916-69.6777 129.688-54.3945 129.688-35.2051C129.688-16.4062 113.916-0.683594 95.0195-0.683594ZM95.1172-24.6582C100.928-24.6582 105.713-29.3457 105.713-35.2051C105.713-41.1133 100.928-45.752 95.1172-45.752C89.1602-45.752 84.3262-41.1133 84.3262-35.2051C84.3262-29.3457 89.1602-24.6582 95.1172-24.6582Z"/>
  </g>
  <g id="Ultralight-L" transform="matrix(1 0 0 1 465.57 1556)">
   <path d="M94.1406 17.041C141.016 17.041 175.488-22.998 175.488-35.2051C175.488-47.3633 140.625-87.4512 94.1406-87.4512C47.4609-87.4512 12.793-47.3633 12.793-35.2051C12.793-22.998 47.168 17.041 94.1406 17.041ZM94.1406-0.830078C75.0488-0.830078 59.8145-16.5039 59.6191-35.2051C59.5703-54.2969 75.0488-69.5312 94.1406-69.5312C112.891-69.5312 128.662-54.2969 128.662-35.2051C128.662-16.5039 112.891-0.830078 94.1406-0.830078ZM94.2383-25.1465C99.8047-25.1465 104.395-29.5898 104.395-35.2051C104.395-40.8691 99.8047-45.2637 94.2383-45.2637C88.5742-45.2637 83.9355-40.8691 83.9355-35.2051C83.9355-29.5898 88.5742-25.1465 94.2383-25.1465Z"/>
  </g>
  <g id="Black-M" transform="matrix(1 0 0 1 2854.57 1126)">
   <path d="M78.7598 8.34961C120.801 8.34961 146.289-25.2441 146.289-35.1562C146.289-44.9707 120.801-78.5645 78.7598-78.5645C37.4512-78.5645 11.377-44.9707 11.377-35.1562C11.377-25.2441 37.4512 8.34961 78.7598 8.34961ZM78.9062-11.0352C65.5273-11.0352 54.541-22.0703 54.541-35.0586C54.541-48.4863 65.5273-59.1797 78.9062-59.1797C92.1875-59.1797 103.174-48.4375 103.174-35.0586C103.174-22.0703 92.1875-11.0352 78.9062-11.0352ZM78.7598-24.6094C84.6191-24.6094 89.3066-29.248 89.3066-35.0098C89.3066-40.7227 84.6191-45.5566 78.7598-45.5566C72.9492-45.5566 68.4082-40.7227 68.4082-35.0098C68.4082-29.248 72.9492-24.6094 78.7598-24.6094Z"/>
  </g>
  <g id="Heavy-M" transform="matrix(1 0 0 1 2558.37 1126)">
   <path d="M78.2715 7.86133C119.629 7.86133 145.459-25.2441 145.459-35.1562C145.459-45.0195 119.629-78.125 78.2715-78.125C37.5977-78.125 11.1816-45.0195 11.1816-35.1562C11.1816-25.2441 37.5977 7.86133 78.2715 7.86133ZM78.3691-10.3027C64.5996-10.3027 53.3203-21.6797 53.3203-35.1074C53.3203-48.9258 64.5996-59.9609 78.3691-59.9609C92.0898-59.9609 103.369-48.877 103.369-35.1074C103.369-21.6797 92.0898-10.3027 78.3691-10.3027ZM78.2715-24.7559C84.0332-24.7559 88.6719-29.3945 88.6719-35.0586C88.6719-40.7227 84.0332-45.4102 78.2715-45.4102C72.5586-45.4102 68.0176-40.7227 68.0176-35.0586C68.0176-29.3945 72.5586-24.7559 78.2715-24.7559Z"/>
  </g>
  <g id="Bold-M" transform="matrix(1 0 0 1 2262.22 1126)">
   <path d="M77.7344 7.32422C118.311 7.32422 144.58-25.293 144.58-35.1562C144.58-45.0684 118.262-77.6367 77.7344-77.6367C37.793-77.6367 10.9375-45.0684 10.9375-35.1562C10.9375-25.293 37.7441 7.32422 77.7344 7.32422ZM77.7832-9.52148C63.5254-9.52148 52.002-21.2402 51.9531-35.1562C51.9043-49.4629 63.5254-60.791 77.7832-60.791C91.9922-60.791 103.564-49.4141 103.564-35.1562C103.564-21.2402 91.9922-9.52148 77.7832-9.52148ZM77.7344-25C83.3496-25 87.9395-29.541 87.9395-35.1074C87.9395-40.6738 83.3496-45.3125 77.7344-45.3125C72.1191-45.3125 67.5781-40.6738 67.5781-35.1074C67.5781-29.541 72.1191-25 77.7344-25Z"/>
  </g>
  <g id="Semibold-M" transform="matrix(1 0 0 1 1965.9 1126)">
   <path d="M77.3438 6.93359C117.432 6.93359 143.945-25.293 143.945-35.1562C143.945-45.0684 117.383-77.2949 77.3438-77.2949C37.8906-77.2949 10.791-45.0684 10.791-35.1562C10.791-25.293 37.8906 6.93359 77.3438 6.93359ZM77.3926-8.93555C62.7441-8.93555 51.0742-20.9473 51.0254-35.1562C50.9766-49.8047 62.7441-61.377 77.3926-61.377C91.9434-61.377 103.711-49.8047 103.711-35.1562C103.711-20.9473 91.9434-8.93555 77.3926-8.93555ZM77.3438-25.0977C82.9102-25.0977 87.4512-29.6387 87.4512-35.1562C87.4512-40.6738 82.9102-45.2148 77.3438-45.2148C71.7773-45.2148 67.2852-40.6738 67.2852-35.1562C67.2852-29.6387 71.7773-25.0977 77.3438-25.0977Z"/>
  </g>
  <g id="Medium-M" transform="matrix(1 0 0 1 1669.5 1126)">
   <path d="M77.0508 6.68945C116.699 6.68945 143.457-25.293 143.457-35.2051C143.457-45.0684 116.65-77.0508 77.0508-77.0508C37.9883-77.0508 10.6445-45.0684 10.6445-35.2051C10.6445-25.293 37.9395 6.68945 77.0508 6.68945ZM77.0996-8.54492C62.207-8.54492 50.3418-20.7031 50.293-35.1562C50.2441-50.0977 62.207-61.8164 77.0996-61.8164C91.8945-61.8164 103.857-50.0488 103.857-35.1562C103.857-20.7031 91.8945-8.54492 77.0996-8.54492ZM77.0996-25.2441C82.5684-25.2441 87.1094-29.7363 87.1094-35.1562C87.1094-40.625 82.5684-45.166 77.0996-45.166C71.5332-45.166 67.041-40.625 67.041-35.1562C67.041-29.7363 71.5332-25.2441 77.0996-25.2441Z"/>
  </g>
  <g id="Regular-M" transform="matrix(1 0 0 1 1373.16 1126)">
   <path d="M76.709 6.29883C115.82 6.29883 142.871-25.3418 142.871-35.2051C142.871-45.1172 115.771-76.709 76.709-76.709C38.0859-76.709 10.498-45.1172 10.498-35.2051C10.498-25.3418 38.0859 6.29883 76.709 6.29883ZM76.709-8.00781C61.4746-8.00781 49.4141-20.3613 49.3652-35.2051C49.3164-50.4395 61.4746-62.4023 76.709-62.4023C91.7969-62.4023 104.004-50.4395 104.004-35.2051C104.004-20.3613 91.7969-8.00781 76.709-8.00781ZM76.709-25.3906C82.1289-25.3906 86.6211-29.834 86.6211-35.2051C86.6211-40.625 82.1289-45.0684 76.709-45.0684C71.2402-45.0684 66.748-40.625 66.748-35.2051C66.748-29.834 71.2402-25.3906 76.709-25.3906Z"/>
  </g>
  <g id="Light-M" transform="matrix(1 0 0 1 1077.62 1126)">
   <path d="M75.5371 6.00586C113.818 6.00586 140.723-25.4883 140.723-35.2051C140.723-44.9707 113.672-76.3672 75.5371-76.3672C37.6953-76.3672 10.3027-44.9707 10.3027-35.2051C10.3027-25.4883 37.5977 6.00586 75.5371 6.00586ZM75.5371-8.1543C60.4492-8.1543 48.4863-20.5078 48.3887-35.2051C48.3398-50.293 60.4492-62.207 75.5371-62.207C90.4785-62.207 102.637-50.293 102.637-35.2051C102.637-20.5078 90.4785-8.1543 75.5371-8.1543ZM75.5859-25.9766C80.6152-25.9766 84.8145-30.1758 84.8145-35.2051C84.8145-40.2832 80.6152-44.4336 75.5859-44.4336C70.459-44.4336 66.2109-40.2832 66.2109-35.2051C66.2109-30.1758 70.459-25.9766 75.5859-25.9766Z"/>
  </g>
  <g id="Thin-M" transform="matrix(1 0 0 1 782.423 1126)">
   <path d="M74.0234 5.56641C111.133 5.56641 137.939-25.6348 137.939-35.2051C137.939-44.7754 110.889-75.9766 74.0234-75.9766C37.1582-75.9766 10.0586-44.7754 10.0586-35.2051C10.0586-25.6348 37.0117 5.56641 74.0234 5.56641ZM74.0234-8.39844C59.082-8.39844 47.2168-20.6055 47.0703-35.2051C47.0215-50.0977 59.082-61.9629 74.0234-61.9629C88.7207-61.9629 100.928-50.0977 100.928-35.2051C100.928-20.6055 88.7207-8.39844 74.0234-8.39844ZM74.0723-26.8066C78.7109-26.8066 82.4707-30.5664 82.4707-35.2051C82.4707-39.8926 78.7109-43.5547 74.0723-43.5547C69.3848-43.5547 65.5273-39.8926 65.5273-35.2051C65.5273-30.5664 69.3848-26.8066 74.0723-26.8066Z"/>
  </g>
  <g id="Ultralight-M" transform="matrix(1 0 0 1 486.493 1126)">
   <path d="M73.2422 5.37109C109.766 5.37109 136.475-25.7324 136.475-35.2051C136.475-44.6777 109.424-75.7324 73.2422-75.7324C36.8652-75.7324 9.96094-44.6777 9.96094-35.2051C9.96094-25.7324 36.6699 5.37109 73.2422 5.37109ZM73.2422-8.54492C58.3984-8.54492 46.5332-20.7031 46.4355-35.2051C46.3867-50 58.3984-61.8652 73.2422-61.8652C87.793-61.8652 100-50 100-35.2051C100-20.7031 87.793-8.54492 73.2422-8.54492ZM73.291-27.2461C77.6855-27.2461 81.2988-30.8105 81.2988-35.2051C81.2988-39.6484 77.6855-43.1641 73.291-43.1641C68.7988-43.1641 65.1367-39.6484 65.1367-35.2051C65.1367-30.8105 68.7988-27.2461 73.291-27.2461Z"/>
  </g>
  <g id="Black-S" transform="matrix(1 0 0 1 2871.63 696)">
   <path d="M61.7188-1.12305C94.6289-1.12305 114.6-27.3926 114.6-35.1562C114.6-42.8711 94.6289-69.1406 61.7188-69.1406C29.3945-69.1406 8.93555-42.8711 8.93555-35.1562C8.93555-27.3926 29.3945-1.12305 61.7188-1.12305ZM61.8164-16.2109C51.3184-16.2109 42.6758-24.9023 42.6758-35.1074C42.6758-45.6543 51.3184-54.0527 61.8164-54.0527C72.2656-54.0527 80.9082-45.6055 80.9082-35.1074C80.9082-24.9023 72.2656-16.2109 61.8164-16.2109ZM61.7188-26.9043C66.3086-26.9043 69.9707-30.5664 69.9707-35.0586C69.9707-39.5508 66.3086-43.3105 61.7188-43.3105C57.1777-43.3105 53.6133-39.5508 53.6133-35.0586C53.6133-30.5664 57.1777-26.9043 61.7188-26.9043Z"/>
  </g>
  <g id="Heavy-S" transform="matrix(1 0 0 1 2575.19 696)">
   <path d="M61.4746-1.46484C93.9453-1.46484 114.209-27.3926 114.209-35.1562C114.209-42.9199 93.9453-68.8477 61.4746-68.8477C29.541-68.8477 8.78906-42.9199 8.78906-35.1562C8.78906-27.3926 29.541-1.46484 61.4746-1.46484ZM61.5234-15.625C50.6836-15.625 41.8457-24.5605 41.8457-35.1074C41.8457-45.9961 50.6836-54.6387 61.5234-54.6387C72.3145-54.6387 81.2012-45.9961 81.2012-35.1074C81.2012-24.5605 72.3145-15.625 61.5234-15.625ZM61.4746-26.9531C66.0156-26.9531 69.6777-30.6152 69.6777-35.1074C69.6777-39.5508 66.0156-43.3105 61.4746-43.3105C56.9336-43.3105 53.3691-39.5508 53.3691-35.1074C53.3691-30.6152 56.9336-26.9531 61.4746-26.9531Z"/>
  </g>
  <g id="Bold-S" transform="matrix(1 0 0 1 2278.8 696)">
   <path d="M61.1816-1.85547C93.1641-1.85547 113.77-27.3926 113.77-35.2051C113.77-42.9688 93.1641-68.5059 61.1816-68.5059C29.7363-68.5059 8.64258-42.9688 8.64258-35.2051C8.64258-27.3926 29.7363-1.85547 61.1816-1.85547ZM61.2305-14.9902C50-14.9902 40.918-24.2188 40.918-35.1562C40.8691-46.4355 50-55.3223 61.2305-55.3223C72.4121-55.3223 81.4941-46.3867 81.4941-35.1562C81.4941-24.2188 72.4121-14.9902 61.2305-14.9902ZM61.1816-27.0508C65.6738-27.0508 69.3359-30.7129 69.3359-35.1562C69.3359-39.5996 65.6738-43.2617 61.1816-43.2617C56.6895-43.2617 53.0762-39.5996 53.0762-35.1562C53.0762-30.7129 56.6895-27.0508 61.1816-27.0508Z"/>
  </g>
  <g id="Semibold-S" transform="matrix(1 0 0 1 1982.28 696)">
   <path d="M60.9863-2.09961C92.627-2.09961 113.477-27.3926 113.477-35.2051C113.477-42.9688 92.627-68.2617 60.9863-68.2617C29.834-68.2617 8.49609-42.9688 8.49609-35.2051C8.49609-27.3926 29.834-2.09961 60.9863-2.09961ZM61.0352-14.5508C49.5117-14.5508 40.2832-23.9746 40.2832-35.1562C40.2344-46.7285 49.5117-55.8105 61.0352-55.8105C72.4609-55.8105 81.7383-46.6797 81.7383-35.1562C81.7383-23.9746 72.4609-14.5508 61.0352-14.5508ZM60.9863-27.0996C65.4297-27.0996 69.0918-30.7617 69.0918-35.1562C69.0918-39.5996 65.4297-43.2617 60.9863-43.2617C56.4941-43.2617 52.8809-39.5996 52.8809-35.1562C52.8809-30.7617 56.4941-27.0996 60.9863-27.0996Z"/>
  </g>
  <g id="Medium-S" transform="matrix(1 0 0 1 1685.74 696)">
   <path d="M60.8398-2.29492C92.2363-2.29492 113.232-27.3926 113.232-35.2051C113.232-43.0176 92.2363-68.1152 60.8398-68.1152C29.9316-68.1152 8.39844-43.0176 8.39844-35.2051C8.39844-27.3926 29.9316-2.29492 60.8398-2.29492ZM60.8398-14.209C49.1211-14.209 39.7949-23.7793 39.7949-35.2051C39.7461-46.9238 49.1211-56.1523 60.8398-56.1523C72.5098-56.1523 81.8848-46.9238 81.8848-35.2051C81.8848-23.7793 72.5098-14.209 60.8398-14.209ZM60.8398-27.1484C65.2832-27.1484 68.9453-30.8105 68.9453-35.1562C68.9453-39.5996 65.2832-43.2617 60.8398-43.2617C56.3965-43.2617 52.7344-39.5996 52.7344-35.1562C52.7344-30.8105 56.3965-27.1484 60.8398-27.1484Z"/>
  </g>
  <g id="Regular-S" transform="matrix(1 0 0 1 1389.22 696)">
   <path d="M60.6445-2.53906C91.6992-2.53906 112.939-27.3926 112.939-35.2051C112.939-43.0664 91.6992-67.8711 60.6445-67.8711C30.0293-67.8711 8.30078-43.0664 8.30078-35.2051C8.30078-27.3926 30.0293-2.53906 60.6445-2.53906ZM60.6445-13.8184C48.6328-13.8184 39.209-23.5352 39.1113-35.2051C39.0625-47.2168 48.6328-56.5918 60.6445-56.5918C72.5586-56.5918 82.0801-47.2168 82.0801-35.2051C82.0801-23.5352 72.5586-13.8184 60.6445-13.8184ZM60.6445-27.1973C65.0391-27.1973 68.7012-30.8594 68.7012-35.2051C68.7012-39.5996 65.0391-43.2617 60.6445-43.2617C56.2012-43.2617 52.5391-39.5996 52.5391-35.2051C52.5391-30.8594 56.2012-27.1973 60.6445-27.1973Z"/>
  </g>
  <g id="Light-S" transform="matrix(1 0 0 1 1093.51 696)">
   <path d="M59.6191-2.83203C89.9414-2.83203 111.084-27.5391 111.084-35.2051C111.084-42.9199 89.8438-67.5781 59.6191-67.5781C29.6875-67.5781 8.1543-42.9199 8.1543-35.2051C8.1543-27.5391 29.6387-2.83203 59.6191-2.83203ZM59.6191-13.9648C47.7539-13.9648 38.3301-23.6328 38.2812-35.2051C38.2324-47.0703 47.7539-56.4453 59.6191-56.4453C71.3867-56.4453 80.957-47.0703 80.957-35.2051C80.957-23.6328 71.3867-13.9648 59.6191-13.9648ZM59.6191-27.7344C63.7207-27.7344 67.1387-31.1523 67.1387-35.2051C67.1387-39.3066 63.7207-42.6758 59.6191-42.6758C55.4688-42.6758 52.0508-39.3066 52.0508-35.2051C52.0508-31.1523 55.4688-27.7344 59.6191-27.7344Z"/>
  </g>
  <g id="Thin-S" transform="matrix(1 0 0 1 798.146 696)">
   <path d="M58.3008-3.17383C87.5977-3.17383 108.594-27.6855 108.594-35.2051C108.594-42.7246 87.4023-67.2363 58.3008-67.2363C29.1992-67.2363 7.95898-42.7246 7.95898-35.2051C7.95898-27.6855 29.1016-3.17383 58.3008-3.17383ZM58.3008-14.1602C46.582-14.1602 37.2559-23.7305 37.1582-35.2051C37.1094-46.9238 46.582-56.25 58.3008-56.25C69.8242-56.25 79.3945-46.9238 79.3945-35.2051C79.3945-23.7305 69.8242-14.1602 58.3008-14.1602ZM58.3008-28.4668C62.0117-28.4668 65.0879-31.4941 65.0879-35.2051C65.0879-38.9648 62.0117-41.9434 58.3008-41.9434C54.541-41.9434 51.4648-38.9648 51.4648-35.2051C51.4648-31.4941 54.541-28.4668 58.3008-28.4668Z"/>
  </g>
  <g id="Ultralight-S" transform="matrix(1 0 0 1 502.118 696)">
   <path d="M57.5684-3.36914C86.377-3.36914 107.324-27.7832 107.324-35.2051C107.324-42.627 86.1328-67.041 57.5684-67.041C28.9551-67.041 7.86133-42.627 7.86133-35.2051C7.86133-27.7832 28.8086-3.36914 57.5684-3.36914ZM57.5684-14.2578C45.9473-14.2578 36.6699-23.8281 36.5723-35.2051C36.5234-46.8262 45.9473-56.1523 57.5684-56.1523C69.043-56.1523 78.6133-46.8262 78.6133-35.2051C78.6133-23.8281 69.043-14.2578 57.5684-14.2578ZM57.6172-28.8574C61.1328-28.8574 64.0137-31.6895 64.0137-35.2051C64.0137-38.7695 61.1328-41.5527 57.6172-41.5527C54.0527-41.5527 51.1719-38.7695 51.1719-35.2051C51.1719-31.6895 54.0527-28.8574 57.6172-28.8574Z"/>
  </g>
 </g>
</svg>
